<?xml version="1.0" encoding="UTF-8"?>
<!DOCTYPE svg PUBLIC "-//W3C//DTD SVG 1.1//EN" "http://www.w3.org/Graphics/SVG/1.1/DTD/svg11.dtd">
<svg xmlns="http://www.w3.org/2000/svg" version="1.1" width="200px" height="108px" style="shape-rendering:geometricPrecision; text-rendering:geometricPrecision; image-rendering:optimizeQuality; fill-rule:evenodd; clip-rule:evenodd" xmlns:xlink="http://www.w3.org/1999/xlink">
<g><path style="opacity:0.004" fill="#000000" d="M 72.5,-0.5 C 72.8333,-0.5 73.1667,-0.5 73.5,-0.5C 73.3147,0.170143 72.9813,0.170143 72.5,-0.5 Z"/></g>
<g><path style="opacity:0.008" fill="#000000" d="M 82.5,-0.5 C 82.8333,-0.5 83.1667,-0.5 83.5,-0.5C 83.3147,0.170143 82.9813,0.170143 82.5,-0.5 Z"/></g>
<g><path style="opacity:0.006" fill="#100c0c" d="M 127.5,-0.5 C 139.5,-0.5 151.5,-0.5 163.5,-0.5C 161.26,0.687168 158.76,1.35383 156,1.5C 153.41,0.60605 150.91,0.272717 148.5,0.5C 146.608,3.04432 144.775,3.04432 143,0.5C 139.323,2.0914 135.823,3.75807 132.5,5.5C 131.5,5.5 130.5,5.5 129.5,5.5C 129.5,5.16667 129.5,4.83333 129.5,4.5C 130.833,4.16667 130.833,3.83333 129.5,3.5C 129.5,2.83333 129.5,2.16667 129.5,1.5C 128.833,0.833333 128.167,0.166667 127.5,-0.5 Z"/></g>
<g><path style="opacity:0.005" fill="#181312" d="M 186.5,0.5 C 186.5,0.166667 186.5,-0.166667 186.5,-0.5C 188.833,-0.5 191.167,-0.5 193.5,-0.5C 193.833,0.833333 194.167,0.833333 194.5,-0.5C 196.167,-0.5 197.833,-0.5 199.5,-0.5C 199.5,1.16667 199.5,2.83333 199.5,4.5C 198.265,4.27858 197.265,3.61191 196.5,2.5C 195.5,3.16667 194.5,3.83333 193.5,4.5C 192.583,3.87277 191.583,3.53944 190.5,3.5C 190.306,1.08824 188.973,0.0882357 186.5,0.5 Z"/></g>
<g><path style="opacity:0.004" fill="#131313" d="M 0.5,0.5 C 2.97323,0.947309 3.13989,1.94731 1,3.5C 0.517215,2.55198 0.350549,1.55198 0.5,0.5 Z"/></g>
<g><path style="opacity:0.004" fill="#000000" d="M 61.5,1.5 C 62.2506,0.426544 63.2506,0.259877 64.5,1C 63.552,1.48278 62.552,1.64945 61.5,1.5 Z"/></g>
<g><path style="opacity:0.012" fill="#544b49" d="M 122.5,-0.5 C 124.167,-0.5 125.833,-0.5 127.5,-0.5C 128.167,0.166667 128.833,0.833333 129.5,1.5C 126.918,1.02539 124.918,1.69206 123.5,3.5C 122.833,3.83333 122.167,4.16667 121.5,4.5C 121.5,3.5 121.5,2.5 121.5,1.5C 122.338,1.15829 122.672,0.491622 122.5,-0.5 Z"/></g>
<g><path style="opacity:0.004" fill="#000000" d="M 55.5,1.5 C 56.8333,2.16667 56.8333,2.16667 55.5,1.5 Z"/></g>
<g><path style="opacity:0.007" fill="#000000" d="M 86.5,1.5 C 86.1667,2.5 85.5,3.16667 84.5,3.5C 84.5,2.16667 85.1667,1.5 86.5,1.5 Z"/></g>
<g><path style="opacity:0.679" fill="#dfdfde" d="M 73.5,11.5 C 72.8333,11.5 72.1667,11.5 71.5,11.5C 69.8333,11.5 68.1667,11.5 66.5,11.5C 66.5,8.16667 66.5,4.83333 66.5,1.5C 69.1194,1.23166 71.6194,1.565 74,2.5C 73.3019,4.76384 73.8019,6.59717 75.5,8C 74.695,9.11268 74.0283,10.2794 73.5,11.5 Z"/></g>
<g><path style="opacity:0.989" fill="#dcdbd9" d="M 101.5,9.5 C 102.167,9.5 102.5,9.16667 102.5,8.5C 103.833,8.5 104.5,9.16667 104.5,10.5C 104.5,10.8333 104.5,11.1667 104.5,11.5C 101.162,11.9347 98.1625,11.2681 95.5,9.5C 95.5,9.16667 95.5,8.83333 95.5,8.5C 95.5,7.16667 95.5,5.83333 95.5,4.5C 95.5,4.16667 95.5,3.83333 95.5,3.5C 98.1625,1.73192 101.162,1.06525 104.5,1.5C 104.649,2.55198 104.483,3.55198 104,4.5C 99.6667,2.5 98,3.83333 99,8.5C 99.6708,9.25244 100.504,9.58577 101.5,9.5 Z"/></g>
<g><path style="opacity:0.82" fill="#d8d7d6" d="M 121.5,1.5 C 121.5,2.5 121.5,3.5 121.5,4.5C 121.232,6.09903 121.566,7.43236 122.5,8.5C 122.5,8.83333 122.5,9.16667 122.5,9.5C 121.662,9.84171 121.328,10.5084 121.5,11.5C 120.5,11.5 119.5,11.5 118.5,11.5C 117.941,8.94245 117.941,6.27578 118.5,3.5C 118.821,1.95186 119.821,1.28519 121.5,1.5 Z"/></g>
<g><path style="opacity:0.016" fill="#35312e" d="M 163.5,-0.5 C 170.5,-0.5 177.5,-0.5 184.5,-0.5C 184.842,0.338246 185.508,0.67158 186.5,0.5C 188.973,0.0882357 190.306,1.08824 190.5,3.5C 190.5,3.83333 190.5,4.16667 190.5,4.5C 189.279,3.97168 188.113,3.30501 187,2.5C 185.605,3.43031 184.105,3.43031 182.5,2.5C 180.923,4.18438 179.257,4.51771 177.5,3.5C 177.5,2.83333 177.167,2.5 176.5,2.5C 174.612,1.72487 172.612,1.72487 170.5,2.5C 169.833,2.5 169.167,2.5 168.5,2.5C 167.833,2.5 167.167,2.5 166.5,2.5C 166.167,2.5 165.833,2.5 165.5,2.5C 164.377,1.24258 163.711,1.57591 163.5,3.5C 163.5,4.83333 164.167,5.5 165.5,5.5C 165.209,6.64911 164.376,7.31577 163,7.5C 160.482,6.87439 157.815,6.87439 155,7.5C 153.019,7.37085 151.353,6.70418 150,5.5C 149.667,5.83333 149.333,6.16667 149,6.5C 147.981,5.31277 146.814,4.31277 145.5,3.5C 144.808,4.02527 144.308,4.69194 144,5.5C 142.085,4.08444 140.585,4.41777 139.5,6.5C 138.778,6.08247 138.278,5.4158 138,4.5C 136.301,5.40609 134.467,5.73943 132.5,5.5C 135.823,3.75807 139.323,2.0914 143,0.5C 144.775,3.04432 146.608,3.04432 148.5,0.5C 150.91,0.272717 153.41,0.60605 156,1.5C 158.76,1.35383 161.26,0.687168 163.5,-0.5 Z"/></g>
<g><path style="opacity:0.005" fill="#191919" d="M 165.5,2.5 C 165.833,3.83333 166.167,3.83333 166.5,2.5C 167.167,2.5 167.833,2.5 168.5,2.5C 169.167,3.83333 169.833,3.83333 170.5,2.5C 172.612,1.72487 174.612,1.72487 176.5,2.5C 177.167,2.5 177.5,2.83333 177.5,3.5C 179.308,5.40585 181.308,6.40585 183.5,6.5C 179.938,8.93845 176.271,8.93845 172.5,6.5C 169.826,8.01588 167.492,7.68255 165.5,5.5C 165.167,4.5 164.5,3.83333 163.5,3.5C 163.711,1.57591 164.377,1.24258 165.5,2.5 Z M 175.5,5.5 C 173.897,5.68819 172.563,5.18819 171.5,4C 173.463,3.15579 174.796,3.65579 175.5,5.5 Z"/></g>
<g><path style="opacity:0.006" fill="#000000" d="M 41.5,4.5 C 41.8966,3.47498 42.5632,3.30831 43.5,4C 42.9056,4.46434 42.2389,4.63101 41.5,4.5 Z"/></g>
<g><path style="opacity:0.486" fill="#d5d4d3" d="M 82.5,0.5 C 83.1098,1.39105 83.4431,2.39105 83.5,3.5C 82.8333,3.5 82.1667,3.5 81.5,3.5C 79.0673,4.54773 79.0673,5.2144 81.5,5.5C 82.3382,5.84171 82.6716,6.50838 82.5,7.5C 81.448,7.35055 80.448,7.51722 79.5,8C 81.3197,8.20041 82.653,9.03374 83.5,10.5C 83.5,11.1667 83.1667,11.5 82.5,11.5C 82.1667,11.5 81.8333,11.5 81.5,11.5C 80.8333,11.5 80.1667,11.5 79.5,11.5C 79.1667,11.5 78.8333,11.5 78.5,11.5C 78.1667,11.5 77.8333,11.5 77.5,11.5C 76.7611,11.631 76.0944,11.4643 75.5,11C 76.4505,7.94325 76.7839,4.77659 76.5,1.5C 78.6208,1.67474 80.6208,1.34141 82.5,0.5 Z"/></g>
<g><path style="opacity:0.005" fill="#0c0c0c" d="M 81.5,3.5 C 82.1667,3.5 82.8333,3.5 83.5,3.5C 83.3284,4.49162 83.6618,5.15829 84.5,5.5C 84.5,5.83333 84.5,6.16667 84.5,6.5C 83.8333,6.5 83.5,6.83333 83.5,7.5C 83.1667,7.5 82.8333,7.5 82.5,7.5C 82.6716,6.50838 82.3382,5.84171 81.5,5.5C 81.5,4.83333 81.5,4.16667 81.5,3.5 Z"/></g>
<g><path style="opacity:0.024" fill="#121212" d="M 22.5,3.5 C 23.2389,3.36899 23.9056,3.53566 24.5,4C 23.1667,4.66667 23.1667,5.33333 24.5,6C 22.0227,6.36847 21.3561,5.53514 22.5,3.5 Z"/></g>
<g><path style="opacity:0.005" fill="#191919" d="M 92.5,4.5 C 89.4312,4.96296 88.9312,6.29629 91,8.5C 91.4796,6.86698 92.3129,5.53365 93.5,4.5C 93.8333,4.5 94.1667,4.5 94.5,4.5C 94.8333,4.5 95.1667,4.5 95.5,4.5C 95.5,5.83333 95.5,7.16667 95.5,8.5C 95.1667,8.5 94.8333,8.5 94.5,8.5C 94.1667,5.83333 93.8333,5.83333 93.5,8.5C 91.2736,10.18 89.6069,9.84665 88.5,7.5C 88.6716,6.50838 88.3382,5.84171 87.5,5.5C 88.9955,3.655 90.6621,3.32167 92.5,4.5 Z M 92.5,4.5 C 92.8333,4.5 93.1667,4.5 93.5,4.5C 92.3129,5.53365 91.4796,6.86698 91,8.5C 88.9312,6.29629 89.4312,4.96296 92.5,4.5 Z"/></g>
<g><path style="opacity:0.043" fill="#3e3b37" d="M 86.5,-0.5 C 87.1667,-0.5 87.8333,-0.5 88.5,-0.5C 89.1667,0.833333 89.8333,0.833333 90.5,-0.5C 92.8333,-0.5 95.1667,-0.5 97.5,-0.5C 98.5,0.833333 99.5,0.833333 100.5,-0.5C 102.833,-0.5 105.167,-0.5 107.5,-0.5C 107.833,0.833333 108.167,0.833333 108.5,-0.5C 112.5,-0.5 116.5,-0.5 120.5,-0.5C 120.833,0.166667 121.167,0.833333 121.5,1.5C 119.821,1.28519 118.821,1.95186 118.5,3.5C 117.391,3.55688 116.391,3.89022 115.5,4.5C 115.715,2.82124 115.048,1.82124 113.5,1.5C 113.167,0.166667 112.833,0.166667 112.5,1.5C 112.5,2.5 112.5,3.5 112.5,4.5C 111.833,4.5 111.5,4.83333 111.5,5.5C 109.824,4.81658 109.157,3.48324 109.5,1.5C 108.5,1.5 107.5,1.5 106.5,1.5C 106.5,2.83333 106.5,4.16667 106.5,5.5C 103.833,5.83333 103.833,6.16667 106.5,6.5C 106.5,8.16667 106.5,9.83333 106.5,11.5C 106.565,11.9382 106.399,12.2716 106,12.5C 105.722,11.5842 105.222,10.9175 104.5,10.5C 104.5,9.16667 103.833,8.5 102.5,8.5C 101.833,8.5 101.5,8.83333 101.5,9.5C 100.504,9.58577 99.6708,9.25244 99,8.5C 98,3.83333 99.6667,2.5 104,4.5C 104.483,3.55198 104.649,2.55198 104.5,1.5C 101.162,1.06525 98.1625,1.73192 95.5,3.5C 95.6716,2.50838 95.3382,1.84171 94.5,1.5C 93.8333,0.166667 93.1667,0.166667 92.5,1.5C 90.8333,1.5 89.1667,1.5 87.5,1.5C 87.1667,0.833333 86.8333,0.166667 86.5,-0.5 Z"/></g>
<g><path style="opacity:0.004" fill="#000000" d="M 4.5,5.5 C 5.71251,6.49711 5.54585,7.49711 4,8.5C 3.53042,7.42317 3.69708,6.42317 4.5,5.5 Z"/></g>
<g><path style="opacity:0.867" fill="#c8c8c7" d="M 111.5,5.5 C 112.167,5.5 112.5,5.16667 112.5,4.5C 112.5,3.5 112.5,2.5 112.5,1.5C 112.833,1.5 113.167,1.5 113.5,1.5C 115.048,1.82124 115.715,2.82124 115.5,4.5C 115.5,6.83333 115.5,9.16667 115.5,11.5C 112.155,11.6744 110.988,10.341 112,7.5C 111.333,8.83333 110.667,8.83333 110,7.5C 109.51,8.79323 109.343,10.1266 109.5,11.5C 108.5,11.5 107.5,11.5 106.5,11.5C 106.5,9.83333 106.5,8.16667 106.5,6.5C 106.5,6.16667 106.5,5.83333 106.5,5.5C 106.5,4.16667 106.5,2.83333 106.5,1.5C 107.5,1.5 108.5,1.5 109.5,1.5C 109.157,3.48324 109.824,4.81658 111.5,5.5 Z"/></g>
<g><path style="opacity:0.004" fill="#000000" d="M 42.5,7.5 C 43.0768,6.22671 43.7435,6.22671 44.5,7.5C 44.0302,8.46295 43.3635,8.46295 42.5,7.5 Z"/></g>
<g><path style="opacity:0.973" fill="#cccac9" d="M 129.5,1.5 C 129.5,2.16667 129.5,2.83333 129.5,3.5C 129.5,3.83333 129.5,4.16667 129.5,4.5C 128.167,4.83333 128.167,5.16667 129.5,5.5C 130.11,6.39105 130.443,7.39105 130.5,8.5C 130.5,9.16667 130.5,9.83333 130.5,10.5C 129.71,11.4013 128.71,12.0679 127.5,12.5C 126.5,12.5 125.5,12.5 124.5,12.5C 123.833,11.5 123.167,10.5 122.5,9.5C 122.5,9.16667 122.5,8.83333 122.5,8.5C 122.833,8.5 123.167,8.5 123.5,8.5C 128.604,9.54745 128.604,8.88078 123.5,6.5C 122.884,5.79778 122.884,4.79778 123.5,3.5C 124.918,1.69206 126.918,1.02539 129.5,1.5 Z"/></g>
<g><path style="opacity:0.004" fill="#000000" d="M 144.5,6.5 C 145.833,7.16667 145.833,7.16667 144.5,6.5 Z"/></g>
<g><path style="opacity:0.012" fill="#2f2f2f" d="M 187.5,6.5 C 186.762,8.76023 185.762,8.9269 184.5,7C 185.448,6.51722 186.448,6.35055 187.5,6.5 Z"/></g>
<g><path style="opacity:0.037" fill="#3f3f3c" d="M 190.5,4.5 C 200.118,7.96839 199.784,9.13505 189.5,8C 188.956,7.28281 188.289,6.78281 187.5,6.5C 188.5,5.83333 189.5,5.16667 190.5,4.5 Z"/></g>
<g><path style="opacity:0.016" fill="#353535" d="M 199.5,5.5 C 199.5,6.5 199.5,7.5 199.5,8.5C 198.167,7.5 198.167,6.5 199.5,5.5 Z"/></g>
<g><path style="opacity:0.004" fill="#000000" d="M 37.5,7.5 C 38.7125,8.49711 38.5458,9.49711 37,10.5C 36.5304,9.42317 36.6971,8.42317 37.5,7.5 Z"/></g>
<g><path style="opacity:0.004" fill="#171717" d="M 123.5,6.5 C 128.604,8.88078 128.604,9.54745 123.5,8.5C 123.5,7.83333 123.5,7.16667 123.5,6.5 Z"/></g>
<g><path style="opacity:0.004" fill="#000000" d="M 133.5,7.5 C 134.833,8.16667 134.833,8.16667 133.5,7.5 Z"/></g>
<g><path style="opacity:0.012" fill="#2b2b2b" d="M 139.5,6.5 C 142.988,6.89915 143.154,7.56581 140,8.5C 138.18,9.4837 136.68,9.31703 135.5,8C 137.058,7.78997 138.391,7.28997 139.5,6.5 Z"/></g>
<g><path style="opacity:0.004" fill="#000000" d="M 50.5,8.5 C 51.8333,9.16667 51.8333,9.16667 50.5,8.5 Z"/></g>
<g><path style="opacity:0.016" fill="#3a3a3a" d="M 133.5,8.5 C 132.71,9.40128 131.71,10.0679 130.5,10.5C 130.5,9.83333 130.5,9.16667 130.5,8.5C 131.5,7.16667 132.5,7.16667 133.5,8.5 Z"/></g>
<g><path style="opacity:0.004" fill="#000000" d="M 158.5,8.5 C 159.833,9.16667 159.833,9.16667 158.5,8.5 Z"/></g>
<g><path style="opacity:0.004" fill="#000000" d="M 33.5,9.5 C 34.8333,10.1667 34.8333,10.1667 33.5,9.5 Z"/></g>
<g><path style="opacity:0.008" fill="#000000" d="M 52.5,9.5 C 53.8333,10.1667 53.8333,10.1667 52.5,9.5 Z"/></g>
<g><path style="opacity:0.89" fill="#d7d6d5" d="M 86.5,1.5 C 86.8333,1.5 87.1667,1.5 87.5,1.5C 89.1667,1.5 90.8333,1.5 92.5,1.5C 93.1667,1.5 93.8333,1.5 94.5,1.5C 94.5,2.5 94.5,3.5 94.5,4.5C 94.1667,4.5 93.8333,4.5 93.5,4.5C 93.1667,4.5 92.8333,4.5 92.5,4.5C 90.6621,3.32167 88.9955,3.655 87.5,5.5C 87.3284,6.49162 87.6618,7.15829 88.5,7.5C 89.6069,9.84665 91.2736,10.18 93.5,8.5C 93.8333,8.5 94.1667,8.5 94.5,8.5C 94.5,8.83333 94.5,9.16667 94.5,9.5C 91.9704,13.109 88.9704,13.4424 85.5,10.5C 85.1667,10.5 84.8333,10.5 84.5,10.5C 84.4431,9.39105 84.1098,8.39105 83.5,7.5C 84.1667,7.5 84.5,7.16667 84.5,6.5C 84.5,6.16667 84.5,5.83333 84.5,5.5C 84.5,4.83333 84.5,4.16667 84.5,3.5C 85.5,3.16667 86.1667,2.5 86.5,1.5 Z"/></g>
<g><path style="opacity:0.004" fill="#000000" d="M 20.5,10.5 C 23.0009,10.5109 23.1676,11.1776 21,12.5C 20.5357,11.9056 20.369,11.2389 20.5,10.5 Z"/></g>
<g><path style="opacity:0.004" fill="#000000" d="M 39.5,10.5 C 40.8333,11.1667 40.8333,11.1667 39.5,10.5 Z"/></g>
<g><path style="opacity:0.004" fill="#000000" d="M 34.5,11.5 C 35.8333,12.1667 35.8333,12.1667 34.5,11.5 Z"/></g>
<g><path style="opacity:0.004" fill="#000000" d="M 37.5,11.5 C 38.8333,12.1667 38.8333,12.1667 37.5,11.5 Z"/></g>
<g><path style="opacity:0.004" fill="#000000" d="M 71.5,11.5 C 72.1667,11.5 72.8333,11.5 73.5,11.5C 73.5,12.1667 73.5,12.8333 73.5,13.5C 73.1667,13.5 72.8333,13.5 72.5,13.5C 72.1667,12.8333 71.8333,12.1667 71.5,11.5 Z"/></g>
<g><path style="opacity:0.012" fill="#2c2c25" d="M 115.5,11.5 C 116.5,11.5 117.5,11.5 118.5,11.5C 118.649,12.552 118.483,13.552 118,14.5C 117.302,13.3094 116.469,12.3094 115.5,11.5 Z"/></g>
<g><path style="opacity:0.004" fill="#000000" d="M 121.5,11.5 C 122.525,11.8966 122.692,12.5632 122,13.5C 121.536,12.9056 121.369,12.2389 121.5,11.5 Z"/></g>
<g><path style="opacity:0.008" fill="#000000" d="M 107.5,12.5 C 108.833,13.1667 108.833,13.1667 107.5,12.5 Z"/></g>
<g><path style="opacity:0.006" fill="#141414" d="M 5.5,11.5 C 6.43448,12.5676 6.76781,13.901 6.5,15.5C 5.32496,15.719 4.32496,15.3857 3.5,14.5C 4.19251,13.4822 4.85917,12.4822 5.5,11.5 Z"/></g>
<g><path style="opacity:0.024" fill="#2c2221" d="M 77.5,11.5 C 77.8333,11.5 78.1667,11.5 78.5,11.5C 78.8333,12.8333 79.1667,12.8333 79.5,11.5C 80.1667,11.5 80.8333,11.5 81.5,11.5C 81.5,11.8333 81.5,12.1667 81.5,12.5C 80.8333,12.5 80.5,12.8333 80.5,13.5C 77.9971,14.8024 74.9971,15.8024 71.5,16.5C 71.189,15.5222 70.5223,14.8555 69.5,14.5C 69.0028,16.216 68.6694,17.8827 68.5,19.5C 67.9442,17.491 66.6108,15.491 64.5,13.5C 67.1562,12.3855 69.8229,12.3855 72.5,13.5C 72.8333,14.8333 73.1667,14.8333 73.5,13.5C 74.8471,12.8288 76.0138,12.8288 77,13.5C 77.4643,12.9056 77.631,12.2389 77.5,11.5 Z"/></g>
<g><path style="opacity:0.004" fill="#2c1d1a" d="M 124.5,12.5 C 125.5,12.5 126.5,12.5 127.5,12.5C 126.032,13.7791 125.365,15.4458 125.5,17.5C 125.167,17.5 124.833,17.5 124.5,17.5C 124.178,15.5248 124.178,13.8582 124.5,12.5 Z"/></g>
<g><path style="opacity:0.098" fill="#3e3d39" d="M 94.5,9.5 C 94.8333,9.5 95.1667,9.5 95.5,9.5C 98.1625,11.2681 101.162,11.9347 104.5,11.5C 102.522,11.7377 100.855,13.0711 99.5,15.5C 98.1667,15.1667 96.8333,14.8333 95.5,14.5C 95.1667,13.1667 94.8333,13.1667 94.5,14.5C 92.5177,15.4912 90.5177,16.4912 88.5,17.5C 89.5896,18.6086 89.5896,19.6086 88.5,20.5C 86.9309,19.286 86.0976,17.6193 86,15.5C 84.8293,17.6157 83.3293,18.2824 81.5,17.5C 80.5941,20.6438 78.7607,20.9771 76,18.5C 71.5015,23.1346 70.0015,22.468 71.5,16.5C 74.9971,15.8024 77.9971,14.8024 80.5,13.5C 81.1667,13.5 81.5,13.1667 81.5,12.5C 82.1667,12.5 82.5,12.1667 82.5,11.5C 83.1667,11.5 83.5,11.1667 83.5,10.5C 83.8333,10.5 84.1667,10.5 84.5,10.5C 84.8333,11.8333 85.1667,11.8333 85.5,10.5C 88.9704,13.4424 91.9704,13.109 94.5,9.5 Z"/></g>
<g><path style="opacity:0.006" fill="#000000" d="M 94.5,14.5 C 94.8333,14.5 95.1667,14.5 95.5,14.5C 95.1667,17.1667 94.8333,17.1667 94.5,14.5 Z"/></g>
<g><path style="opacity:0.004" fill="#000000" d="M 103.5,14.5 C 104.833,15.1667 104.833,15.1667 103.5,14.5 Z"/></g>
<g><path style="opacity:0.012" fill="#36231f" d="M 40.5,14.5 C 42.4646,14.9483 42.7979,15.9483 41.5,17.5C 40.6143,16.675 40.281,15.675 40.5,14.5 Z"/></g>
<g><path style="opacity:0.004" fill="#000000" d="M 99.5,15.5 C 100.833,16.1667 100.833,16.1667 99.5,15.5 Z"/></g>
<g><path style="opacity:0.004" fill="#000000" d="M 122.5,15.5 C 123.833,16.1667 123.833,16.1667 122.5,15.5 Z"/></g>
<g><path style="opacity:0.004" fill="#000000" d="M 12.5,16.5 C 13.8333,17.1667 13.8333,17.1667 12.5,16.5 Z"/></g>
<g><path style="opacity:0.027" fill="#33312f" d="M 50.5,15.5 C 52.1484,16.7772 53.9817,17.7772 56,18.5C 56.3173,16.6992 56.984,16.3659 58,17.5C 59.9738,14.8817 61.8071,15.0483 63.5,18C 62,19.1667 60.5,20.3333 59,21.5C 58.3333,20.8333 57.6667,20.1667 57,19.5C 54.1196,21.2859 51.2862,21.4525 48.5,20C 49.5822,18.6703 50.2488,17.1703 50.5,15.5 Z"/></g>
<g><path style="opacity:0.004" fill="#000000" d="M 109.5,17.5 C 110.833,18.1667 110.833,18.1667 109.5,17.5 Z"/></g>
<g><path style="opacity:0.004" fill="#000000" d="M 124.5,17.5 C 123.833,18.1667 123.833,18.1667 124.5,17.5 Z"/></g>
<g><path style="opacity:0.005" fill="#000000" d="M 23.5,19.5 C 24.2506,18.4265 25.2506,18.2599 26.5,19C 25.552,19.4828 24.552,19.6495 23.5,19.5 Z"/></g>
<g><path style="opacity:0.004" fill="#000000" d="M 39.5,18.5 C 40.8333,19.1667 40.8333,19.1667 39.5,18.5 Z"/></g>
<g><path style="opacity:0.012" fill="#393939" d="M 93.5,19.5 C 93.8966,18.475 94.5632,18.3083 95.5,19C 94.9056,19.4643 94.2389,19.631 93.5,19.5 Z"/></g>
<g><path style="opacity:0.004" fill="#000000" d="M 116.5,20.5 C 116.369,19.7611 116.536,19.0944 117,18.5C 117.692,19.4368 117.525,20.1034 116.5,20.5 Z"/></g>
<g><path style="opacity:0.004" fill="#000000" d="M 130.5,18.5 C 131.833,19.1667 131.833,19.1667 130.5,18.5 Z"/></g>
<g><path style="opacity:0.004" fill="#000000" d="M 83.5,19.5 C 84.8333,20.1667 84.8333,20.1667 83.5,19.5 Z"/></g>
<g><path style="opacity:0.016" fill="#3e3f3e" d="M 118.5,19.5 C 119.833,20.1667 119.833,20.1667 118.5,19.5 Z"/></g>
<g><path style="opacity:0.004" fill="#191716" d="M 130.5,19.5 C 132.422,20.96 133.089,22.6267 132.5,24.5C 131.833,24.5 131.167,24.5 130.5,24.5C 129.994,22.5713 128.994,20.9047 127.5,19.5C 128.098,18.2054 128.598,16.8721 129,15.5C 129.21,17.0581 129.71,18.3915 130.5,19.5 Z"/></g>
<g><path style="opacity:0.004" fill="#000000" d="M 132.5,19.5 C 133.833,20.1667 133.833,20.1667 132.5,19.5 Z"/></g>
<g><path style="opacity:0.039" fill="#342c2b" d="M 41.5,18.5 C 46.4286,19.3461 46.5953,20.6794 42,22.5C 41.5,22.1667 41,21.8333 40.5,21.5C 41.1272,20.5832 41.4606,19.5832 41.5,18.5 Z"/></g>
<g><path style="opacity:0.004" fill="#000000" d="M 116.5,20.5 C 115.833,21.1667 115.833,21.1667 116.5,20.5 Z"/></g>
<g><path style="opacity:0.004" fill="#000000" d="M 124.5,20.5 C 123.833,21.1667 123.833,21.1667 124.5,20.5 Z"/></g>
<g><path style="opacity:0.012" fill="#4f322c" d="M 62.5,22.5 C 63.0768,21.2267 63.7435,21.2267 64.5,22.5C 64.0302,23.463 63.3635,23.463 62.5,22.5 Z"/></g>
<g><path style="opacity:0.006" fill="#2d261b" d="M 125.5,17.5 C 126.132,20.6095 127.132,22.9428 128.5,24.5C 127.833,24.5 127.167,24.5 126.5,24.5C 126.011,23.0048 125.345,21.6715 124.5,20.5C 125.11,19.609 125.443,18.609 125.5,17.5 Z"/></g>
<g><path style="opacity:0.075" fill="#bab9b8" d="M 126.5,24.5 C 127.167,24.5 127.833,24.5 128.5,24.5C 129.167,24.5 129.833,24.5 130.5,24.5C 131.167,24.5 131.833,24.5 132.5,24.5C 133.594,22.1638 134.927,22.1638 136.5,24.5C 130.399,25.1284 124.399,25.7951 118.5,26.5C 117.883,26.6107 117.383,26.944 117,27.5C 78.5668,26.8362 40.0668,26.1696 1.5,25.5C 10.5751,25.1286 19.4085,24.1286 28,22.5C 40.9438,23.8238 54.1104,24.4905 67.5,24.5C 87.47,23.9879 107.137,23.9879 126.5,24.5 Z"/></g>
<g><path style="opacity:0.004" fill="#000000" d="M 29.5,22.5 C 30.8333,23.1667 30.8333,23.1667 29.5,22.5 Z"/></g>
<g><path style="opacity:0.554" fill="#d1d0d0" d="M 136.5,24.5 C 156.511,24.167 176.511,24.5004 196.5,25.5C 177.178,26.4996 157.845,26.8329 138.5,26.5C 137.5,26.5 136.5,26.5 135.5,26.5C 134.5,26.5 133.5,26.5 132.5,26.5C 131.833,26.5 131.167,26.5 130.5,26.5C 129.833,26.5 129.167,26.5 128.5,26.5C 127.833,26.5 127.167,26.5 126.5,26.5C 123.833,26.5 121.167,26.5 118.5,26.5C 124.399,25.7951 130.399,25.1284 136.5,24.5 Z"/></g>
<g><path style="opacity:0.005" fill="#161513" d="M 126.5,26.5 C 127.167,26.5 127.833,26.5 128.5,26.5C 128.786,28.9327 129.452,28.9327 130.5,26.5C 131.167,26.5 131.833,26.5 132.5,26.5C 132.443,27.609 132.11,28.609 131.5,29.5C 129.833,29.5 128.167,29.5 126.5,29.5C 127.833,28.5 127.833,27.5 126.5,26.5 Z M 128.5,26.5 C 129.167,26.5 129.833,26.5 130.5,26.5C 129.452,28.9327 128.786,28.9327 128.5,26.5 Z"/></g>
<g><path style="opacity:0.008" fill="#7e7f00" d="M 113.5,28.5 C 114.833,29.1667 114.833,29.1667 113.5,28.5 Z"/></g>
<g><path style="opacity:0.004" fill="#000000" d="M 113.5,29.5 C 112.833,30.1667 112.833,30.1667 113.5,29.5 Z"/></g>
<g><path style="opacity:0.008" fill="#000000" d="M 124.5,30.5 C 123.833,29.1667 123.833,29.1667 124.5,30.5 Z"/></g>
<g><path style="opacity:0.004" fill="#000000" d="M 126.5,29.5 C 126.5,30.8333 125.833,31.5 124.5,31.5C 124.5,31.1667 124.5,30.8333 124.5,30.5C 125.167,30.1667 125.833,29.8333 126.5,29.5 Z"/></g>
<g><path style="opacity:0.004" fill="#000000" d="M 131.5,29.5 C 132.338,29.8417 132.672,30.5084 132.5,31.5C 130.302,31.5912 129.969,30.9245 131.5,29.5 Z"/></g>
<g><path style="opacity:0.006" fill="#000000" d="M 107.5,30.5 C 108.525,30.8966 108.692,31.5632 108,32.5C 107.536,31.9056 107.369,31.2389 107.5,30.5 Z"/></g>
<g><path style="opacity:0.004" fill="#000000" d="M 105.5,31.5 C 106.833,32.1667 106.833,32.1667 105.5,31.5 Z"/></g>
<g><path style="opacity:0.004" fill="#000000" d="M 110.5,31.5 C 111.833,32.1667 111.833,32.1667 110.5,31.5 Z"/></g>
<g><path style="opacity:0.573" fill="#bfbebd" d="M 143.5,32.5 C 141.341,33.7849 140.674,35.4515 141.5,37.5C 141.5,37.8333 141.5,38.1667 141.5,38.5C 141.328,39.4916 141.662,40.1583 142.5,40.5C 142.5,41.1667 142.833,41.5 143.5,41.5C 142.89,42.391 142.557,43.391 142.5,44.5C 142.443,45.609 142.11,46.609 141.5,47.5C 141.5,48.1667 141.5,48.8333 141.5,49.5C 140.833,49.5 140.5,49.8333 140.5,50.5C 139.833,50.5 139.5,50.8333 139.5,51.5C 138.036,50.5946 136.702,50.5946 135.5,51.5C 135.167,51.5 134.833,51.5 134.5,51.5C 134.167,51.5 133.833,51.5 133.5,51.5C 132.508,51.3284 131.842,51.6618 131.5,52.5C 129.856,52.7135 128.356,52.3802 127,51.5C 125.887,52.305 124.721,52.9717 123.5,53.5C 122.766,52.2921 122.433,50.9587 122.5,49.5C 123.222,49.9175 123.722,50.5842 124,51.5C 124.333,50.8333 124.667,50.1667 125,49.5C 125.986,50.1712 127.153,50.1712 128.5,49.5C 128.833,49.5 129.167,49.5 129.5,49.5C 129.833,50.8333 130.167,50.8333 130.5,49.5C 131.167,49.5 131.5,49.1667 131.5,48.5C 132.5,48.5 133.5,48.5 134.5,48.5C 134.833,48.5 135.167,48.5 135.5,48.5C 135.833,49.8333 136.167,49.8333 136.5,48.5C 138.698,48.5912 139.031,47.9245 137.5,46.5C 138.496,46.4142 139.329,46.7476 140,47.5C 140.147,43.5119 139.981,39.5119 139.5,35.5C 139.733,33.9382 140.4,32.6049 141.5,31.5C 147.942,30.1219 154.275,30.6219 160.5,33C 162.937,34.2788 163.437,35.7788 162,37.5C 160.992,35.741 159.492,34.5743 157.5,34C 152.915,32.7748 148.248,32.2748 143.5,32.5 Z"/></g>
<g><path style="opacity:0.004" fill="#000000" d="M 114.5,32.5 C 115.833,33.1667 115.833,33.1667 114.5,32.5 Z"/></g>
<g><path style="opacity:0.004" fill="#000000" d="M 118.5,32.5 C 119.833,33.1667 119.833,33.1667 118.5,32.5 Z"/></g>
<g><path style="opacity:0.008" fill="#535353" d="M 124.5,31.5 C 124.631,32.2389 124.464,32.9056 124,33.5C 123.308,32.5632 123.475,31.8966 124.5,31.5 Z"/></g>
<g><path style="opacity:0.006" fill="#2d2825" d="M 135.5,26.5 C 136.5,26.5 137.5,26.5 138.5,26.5C 138.721,28.6636 139.721,30.3303 141.5,31.5C 140.4,32.6049 139.733,33.9382 139.5,35.5C 137.142,35.2525 135.142,35.9192 133.5,37.5C 132.659,35.6208 132.325,33.6208 132.5,31.5C 134.854,30.5065 135.854,31.5065 135.5,34.5C 136.5,34.5 137.5,34.5 138.5,34.5C 138.5,33.1667 138.5,31.8333 138.5,30.5C 135.046,30.7332 134.046,29.3999 135.5,26.5 Z"/></g>
<g><path style="opacity:0.005" fill="#34302f" d="M 143.5,32.5 C 143.025,35.3126 144.025,37.3126 146.5,38.5C 145.811,39.7736 144.977,39.7736 144,38.5C 143.536,39.0944 143.369,39.7611 143.5,40.5C 143.167,40.5 142.833,40.5 142.5,40.5C 141.662,40.1583 141.328,39.4916 141.5,38.5C 142.833,38.1667 142.833,37.8333 141.5,37.5C 140.674,35.4515 141.341,33.7849 143.5,32.5 Z"/></g>
<g><path style="opacity:0.643" fill="#c8c7c5" d="M 51.5,42.5 C 51.1667,42.5 50.8333,42.5 50.5,42.5C 50.1667,41.1667 49.8333,41.1667 49.5,42.5C 48.8333,42.5 48.5,42.8333 48.5,43.5C 47.8333,43.5 47.5,43.8333 47.5,44.5C 46.8333,44.5 46.5,44.8333 46.5,45.5C 41.5324,50.638 36.6991,55.9714 32,61.5C 30.9164,60.3349 30.0831,59.0016 29.5,57.5C 30.0678,54.548 31.2344,51.8813 33,49.5C 38.5169,44.3193 44.3503,39.486 50.5,35C 52.3453,33.872 54.3453,33.372 56.5,33.5C 56.6448,37.5468 54.9781,40.5468 51.5,42.5 Z M 46.5,41.5 C 41.8768,47.2942 37.0435,52.9609 32,58.5C 31.7434,55.9832 32.4101,53.6498 34,51.5C 37.5893,47.3083 41.7559,43.9749 46.5,41.5 Z"/></g>
<g><path style="opacity:0.004" fill="#000000" d="M 109.5,37.5 C 109.897,36.475 110.563,36.3083 111.5,37C 110.906,37.4643 110.239,37.631 109.5,37.5 Z"/></g>
<g><path style="opacity:0.029" fill="#3a322a" d="M 199.5,35.5 C 199.5,36.8333 199.5,38.1667 199.5,39.5C 197.255,39.5412 196.588,40.3745 197.5,42C 196.552,42.4828 195.552,42.6495 194.5,42.5C 194.657,41.1266 194.49,39.7932 194,38.5C 193.578,40.4257 192.411,41.4257 190.5,41.5C 189.2,40.399 188.7,39.0657 189,37.5C 191.085,38.6469 192.585,37.9803 193.5,35.5C 195.532,36.819 197.532,36.819 199.5,35.5 Z"/></g>
<g><path style="opacity:0.004" fill="#000000" d="M 100.5,37.5 C 101.833,38.1667 101.833,38.1667 100.5,37.5 Z"/></g>
<g><path style="opacity:0.004" fill="#000000" d="M 115.5,37.5 C 116.573,38.2506 116.74,39.2506 116,40.5C 115.517,39.552 115.351,38.552 115.5,37.5 Z"/></g>
<g><path style="opacity:0.006" fill="#000000" d="M 118.5,37.5 C 119.525,37.8966 119.692,38.5632 119,39.5C 118.536,38.9056 118.369,38.2389 118.5,37.5 Z"/></g>
<g><path style="opacity:0.004" fill="#000000" d="M 146.5,37.5 C 147.833,38.1667 147.833,38.1667 146.5,37.5 Z"/></g>
<g><path style="opacity:0.016" fill="#222222" d="M 133.5,37.5 C 133.833,38.1667 134.167,38.8333 134.5,39.5C 132.576,39.2893 132.243,38.6226 133.5,37.5 Z"/></g>
<g><path style="opacity:0.006" fill="#1a1a1a" d="M 147.5,40.5 C 148.386,39.2241 149.386,39.2241 150.5,40.5C 149.767,41.087 148.767,41.087 147.5,40.5 Z"/></g>
<g><path style="opacity:0.02" fill="#53521b" d="M 183.5,40.5 C 184.601,39.4017 185.934,39.235 187.5,40C 186.207,40.49 184.873,40.6567 183.5,40.5 Z"/></g>
<g><path style="opacity:0.005" fill="#000000" d="M 117.5,40.5 C 118.773,41.0768 118.773,41.7435 117.5,42.5C 116.537,42.0302 116.537,41.3635 117.5,40.5 Z"/></g>
<g><path style="opacity:0.004" fill="#000000" d="M 143.5,40.5 C 144.833,41.1667 144.833,41.1667 143.5,40.5 Z"/></g>
<g><path style="opacity:0.004" fill="#191919" d="M 147.5,40.5 C 147.5,40.8333 147.5,41.1667 147.5,41.5C 144.833,41.1667 144.833,40.8333 147.5,40.5 Z"/></g>
<g><path style="opacity:0.004" fill="#000000" d="M 199.5,40.5 C 199.5,40.8333 199.5,41.1667 199.5,41.5C 198.83,41.0187 198.83,40.6853 199.5,40.5 Z"/></g>
<g><path style="opacity:0.004" fill="#140b0a" d="M 127.5,41.5 C 128.968,42.7791 129.635,44.4458 129.5,46.5C 128.9,45.0998 127.9,44.0998 126.5,43.5C 126.5,43.1667 126.5,42.8333 126.5,42.5C 126.5,41.8333 126.833,41.5 127.5,41.5 Z"/></g>
<g><path style="opacity:0.016" fill="#2e2a25" d="M 136.5,44.5 C 136.167,44.5 135.833,44.5 135.5,44.5C 135.167,43.1667 134.833,43.1667 134.5,44.5C 134.5,45.1667 134.167,45.5 133.5,45.5C 132.933,43.9705 132.267,42.4705 131.5,41C 132.449,40.3828 133.282,40.5494 134,41.5C 134.464,40.9056 134.631,40.2389 134.5,39.5C 135.423,38.6971 136.423,38.5304 137.5,39C 136.74,41.0251 136.406,42.8585 136.5,44.5 Z"/></g>
<g><path style="opacity:0.004" fill="#0a0a0a" d="M 183.5,41.5 C 184.222,41.9175 184.722,42.5842 185,43.5C 185.333,42.8333 185.667,42.1667 186,41.5C 187.044,42.6226 187.71,43.9559 188,45.5C 188.333,45.1667 188.667,44.8333 189,44.5C 189.692,45.4368 189.525,46.1034 188.5,46.5C 187.883,46.6107 187.383,46.944 187,47.5C 186.583,46.244 185.75,45.5774 184.5,45.5C 183.833,45.1667 183.167,44.8333 182.5,44.5C 182.5,44.1667 182.5,43.8333 182.5,43.5C 183.338,43.1583 183.672,42.4916 183.5,41.5 Z"/></g>
<g><path style="opacity:0.008" fill="#7e7f7e" d="M 190.5,41.5 C 189.833,42.1667 189.833,42.1667 190.5,41.5 Z"/></g>
<g><path style="opacity:0.005" fill="#21201f" d="M 183.5,40.5 C 183.5,40.8333 183.5,41.1667 183.5,41.5C 182.508,41.3284 181.842,41.6618 181.5,42.5C 176.705,41.3638 175.705,42.6972 178.5,46.5C 177.081,47.4511 175.415,47.7845 173.5,47.5C 173.5,46.8333 173.5,46.1667 173.5,45.5C 172.417,45.4606 171.417,45.1272 170.5,44.5C 169.059,46.8329 169.725,48.1662 172.5,48.5C 172.5,48.8333 172.5,49.1667 172.5,49.5C 171.5,50.8333 170.5,50.8333 169.5,49.5C 169.5,48.8333 169.167,48.5 168.5,48.5C 168.5,48.1667 168.5,47.8333 168.5,47.5C 167.322,44.7835 166.322,44.4501 165.5,46.5C 165.167,46.5 164.833,46.5 164.5,46.5C 163.778,47.5511 162.778,48.2178 161.5,48.5C 162.259,45.5566 160.926,43.89 157.5,43.5C 157.343,44.8734 157.51,46.2068 158,47.5C 159.107,46.2881 159.607,46.6214 159.5,48.5C 158.5,48.5 157.5,48.5 156.5,48.5C 156.167,47.1667 155.833,47.1667 155.5,48.5C 155.167,48.5 154.833,48.5 154.5,48.5C 154.414,47.5041 154.748,46.6708 155.5,46C 154.256,45.5439 153.423,46.0439 153,47.5C 152.46,45.8654 152.96,44.5321 154.5,43.5C 153.624,42.7492 152.624,42.2492 151.5,42C 156.932,42.2396 162.265,42.4063 167.5,42.5C 169.258,41.8721 170.758,40.8721 172,39.5C 175.782,40.1539 179.616,40.4872 183.5,40.5 Z M 173.5,42.5 C 174.404,43.209 174.737,44.209 174.5,45.5C 174.167,45.5 173.833,45.5 173.5,45.5C 172.167,44.5 172.167,43.5 173.5,42.5 Z M 161.5,48.5 C 160.833,48.5 160.167,48.5 159.5,48.5C 159.607,46.6214 159.107,46.2881 158,47.5C 157.51,46.2068 157.343,44.8734 157.5,43.5C 160.926,43.89 162.259,45.5566 161.5,48.5 Z M 168.5,47.5 C 167.391,47.4431 166.391,47.1098 165.5,46.5C 166.322,44.4501 167.322,44.7835 168.5,47.5 Z"/></g>
<g><path style="opacity:0.004" fill="#000000" d="M 199.5,42.5 C 199.5,42.8333 199.5,43.1667 199.5,43.5C 198.83,43.0187 198.83,42.6853 199.5,42.5 Z"/></g>
<g><path style="opacity:0.029" fill="#555555" d="M 147.5,41.5 C 150.72,42.509 151.386,44.509 149.5,47.5C 148.833,47.5 148.5,47.1667 148.5,46.5C 148.5,45.8333 148.167,45.5 147.5,45.5C 147.5,44.1667 146.833,43.5 145.5,43.5C 146.167,42.8333 146.833,42.1667 147.5,41.5 Z"/></g>
<g><path style="opacity:0.855" fill="#c0bfbd" d="M 127.5,41.5 C 126.833,41.5 126.5,41.8333 126.5,42.5C 125.167,42.8333 125.167,43.1667 126.5,43.5C 126.365,46.3721 125.031,47.8721 122.5,48C 125.324,42.8139 124.657,42.3139 120.5,46.5C 119.128,48.6198 119.795,49.6198 122.5,49.5C 122.433,50.9587 122.766,52.2921 123.5,53.5C 122.5,53.5 121.5,53.5 120.5,53.5C 120.5,52.5 120.5,51.5 120.5,50.5C 117.899,51.2796 115.899,52.9463 114.5,55.5C 113.692,55.1924 113.025,54.6924 112.5,54C 113.036,51.4921 114.369,49.6587 116.5,48.5C 117.043,48.44 117.376,48.1067 117.5,47.5C 115.5,46.1667 113.5,46.1667 111.5,47.5C 109.005,54.2815 105.005,57.2815 99.5,56.5C 99.2978,54.0108 99.7978,51.6775 101,49.5C 104.519,47.8256 106.685,45.159 107.5,41.5C 110.5,41.1667 111.833,42.5 111.5,45.5C 117.87,46.2163 122.036,43.5497 124,37.5C 125.739,35.2589 127.906,33.5922 130.5,32.5C 131.631,34.0745 131.798,35.7412 131,37.5C 129.595,38.7305 128.429,40.0639 127.5,41.5 Z M 107.5,46.5 C 108.376,46.3691 109.043,46.7025 109.5,47.5C 107.86,50.973 105.36,53.6397 102,55.5C 100.385,54.344 100.385,53.0107 102,51.5C 103.812,49.6997 105.645,48.0331 107.5,46.5 Z"/></g>
<g><path style="opacity:0.004" fill="#000000" d="M 192.5,45.5 C 191.833,45.5 191.5,45.8333 191.5,46.5C 190.957,46.44 190.624,46.1067 190.5,45.5C 191.257,44.2267 191.923,44.2267 192.5,45.5 Z"/></g>
<g><path style="opacity:0.447" fill="#c4c3c2" d="M 85.5,45.5 C 86.2485,46.531 86.9152,47.6976 87.5,49C 84.668,49.1741 84.0013,48.0075 85.5,45.5 Z"/></g>
<g><path style="opacity:0.004" fill="#000000" d="M 129.5,46.5 C 130.404,47.209 130.737,48.209 130.5,49.5C 130.167,49.5 129.833,49.5 129.5,49.5C 129.167,49.5 128.833,49.5 128.5,49.5C 129.11,48.609 129.443,47.609 129.5,46.5 Z"/></g>
<g><path style="opacity:0.345" fill="#827e72" d="M 134.5,44.5 C 134.833,44.5 135.167,44.5 135.5,44.5C 135.833,44.5 136.167,44.5 136.5,44.5C 136.833,45.1667 137.167,45.8333 137.5,46.5C 136.662,46.8417 136.328,47.5084 136.5,48.5C 136.167,48.5 135.833,48.5 135.5,48.5C 135.167,47.1667 134.833,47.1667 134.5,48.5C 133.5,48.5 132.5,48.5 131.5,48.5C 131.782,47.2223 132.449,46.2223 133.5,45.5C 134.167,45.5 134.5,45.1667 134.5,44.5 Z"/></g>
<g><path style="opacity:0.012" fill="#3e3e3e" d="M 199.5,44.5 C 199.5,45.5 199.5,46.5 199.5,47.5C 197.799,47.9662 196.299,47.9662 195,47.5C 194.29,48.9733 193.124,49.6399 191.5,49.5C 191.5,48.5 191.5,47.5 191.5,46.5C 192.167,46.5 192.5,46.1667 192.5,45.5C 193.807,44.8466 195.14,44.1799 196.5,43.5C 197.213,45.435 198.213,45.7683 199.5,44.5 Z"/></g>
<g><path style="opacity:0.008" fill="#000000" d="M 116.5,48.5 C 115.833,47.1667 115.833,47.1667 116.5,48.5 Z"/></g>
<g><path style="opacity:0.004" fill="#000000" d="M 190.5,49.5 C 190.833,49.5 191.167,49.5 191.5,49.5C 191.315,50.1701 190.981,50.1701 190.5,49.5 Z"/></g>
<g><path style="opacity:0.02" fill="#454442" d="M 181.5,42.5 C 182.167,42.5 182.5,42.8333 182.5,43.5C 182.5,43.8333 182.5,44.1667 182.5,44.5C 182.062,44.4346 181.728,44.6012 181.5,45C 182.646,47.767 183.646,47.9337 184.5,45.5C 185.75,45.5774 186.583,46.244 187,47.5C 187.383,46.944 187.883,46.6107 188.5,46.5C 189.551,47.2223 190.218,48.2223 190.5,49.5C 189.504,49.5858 188.671,49.2524 188,48.5C 185.145,51.7496 182.145,52.0829 179,49.5C 178.8,51.3197 177.966,52.653 176.5,53.5C 175.571,52.6851 174.571,51.8518 173.5,51C 175.932,49.9125 175.598,49.4125 172.5,49.5C 172.5,49.1667 172.5,48.8333 172.5,48.5C 173.167,48.5 173.5,48.1667 173.5,47.5C 175.415,47.7845 177.081,47.4511 178.5,46.5C 179.773,46.0685 180.773,44.7352 181.5,42.5 Z"/></g>
<g><path style="opacity:0.006" fill="#211807" d="M 139.5,51.5 C 139.5,51.8333 139.5,52.1667 139.5,52.5C 138.167,52.8333 136.833,53.1667 135.5,53.5C 135.5,52.8333 135.5,52.1667 135.5,51.5C 136.702,50.5946 138.036,50.5946 139.5,51.5 Z"/></g>
<g><path style="opacity:0.039" fill="#545450" d="M 168.5,49.5 C 168.833,49.5 169.167,49.5 169.5,49.5C 170.5,50.8333 171.5,50.8333 172.5,49.5C 172.649,50.552 172.483,51.552 172,52.5C 170.575,53.0792 168.908,53.0792 167,52.5C 166.667,53.1667 166.333,53.8333 166,54.5C 165.51,53.2068 165.343,51.8734 165.5,50.5C 166.209,49.596 167.209,49.2627 168.5,49.5 Z"/></g>
<g><path style="opacity:0.004" fill="#000000" d="M 188.5,51.5 C 189.833,52.1667 189.833,52.1667 188.5,51.5 Z"/></g>
<g><path style="opacity:0.635" fill="#c5c5c3" d="M 49.5,42.5 C 49.8333,42.5 50.1667,42.5 50.5,42.5C 50.8333,42.5 51.1667,42.5 51.5,42.5C 51.5301,46.2128 50.1967,49.7128 47.5,53C 50.1808,51.8868 52.8474,50.3868 55.5,48.5C 56.754,50.2592 56.4206,51.7592 54.5,53C 57.0937,53.4493 59.0937,52.4493 60.5,50C 62.265,49.3603 63.9317,49.5269 65.5,50.5C 65.5,51.1667 65.1667,51.5 64.5,51.5C 63.3115,52.0476 62.1448,52.3809 61,52.5C 60.3333,53.1667 60.3333,53.8333 61,54.5C 61.6708,53.7476 62.5041,53.4142 63.5,53.5C 64.1667,54.1667 64.8333,54.8333 65.5,55.5C 60.3351,54.8513 55.1684,54.5179 50,54.5C 47.1341,54.959 44.8008,56.2923 43,58.5C 42.5,58.3333 42,58.1667 41.5,58C 43.4144,54.4113 45.7477,51.078 48.5,48C 47.244,47.5831 46.5774,46.7498 46.5,45.5C 47.1667,45.5 47.5,45.1667 47.5,44.5C 48.1667,44.5 48.5,44.1667 48.5,43.5C 49.1667,43.5 49.5,43.1667 49.5,42.5 Z"/></g>
<g><path style="opacity:0.502" fill="#cacac9" d="M 65.5,55.5 C 64.8333,54.8333 64.1667,54.1667 63.5,53.5C 64.3382,53.1583 64.6716,52.4916 64.5,51.5C 65.1667,51.5 65.5,51.1667 65.5,50.5C 67.2869,49.1826 68.9536,49.516 70.5,51.5C 73.6519,50.2209 75.6519,47.8875 76.5,44.5C 78.6409,41.9814 80.6409,41.9814 82.5,44.5C 81.5254,46.7952 80.1921,48.7952 78.5,50.5C 78.8333,51.1667 79.1667,51.8333 79.5,52.5C 80.8333,51.8333 82.1667,51.1667 83.5,50.5C 84.1924,51.0253 84.6924,51.6919 85,52.5C 86.7448,51.0443 88.5781,49.711 90.5,48.5C 90.8333,49.3333 91.1667,50.1667 91.5,51C 90.8864,52.5366 90.8864,53.87 91.5,55C 89.2511,55.8632 87.4178,55.3632 86,53.5C 83.4512,54.0424 80.9512,54.3757 78.5,54.5C 77.3527,54.1822 76.5194,53.5156 76,52.5C 74.5792,55.6222 72.9125,55.9556 71,53.5C 69.2745,54.464 67.4412,55.1307 65.5,55.5 Z M 66.5,51.5 C 67.7733,52.0768 67.7733,52.7435 66.5,53.5C 65.537,53.0302 65.537,52.3635 66.5,51.5 Z M 78.5,44.5 C 80.6569,45.0533 80.4903,46.0533 78,47.5C 77.5304,46.4232 77.6971,45.4232 78.5,44.5 Z"/></g>
<g><path style="opacity:0.647" fill="#b5b4b2" d="M 145.5,43.5 C 146.833,43.5 147.5,44.1667 147.5,45.5C 148.167,45.5 148.5,45.8333 148.5,46.5C 148.5,47.1667 148.833,47.5 149.5,47.5C 151.117,48.038 152.784,48.3713 154.5,48.5C 154.833,48.5 155.167,48.5 155.5,48.5C 155.833,48.5 156.167,48.5 156.5,48.5C 157.5,48.5 158.5,48.5 159.5,48.5C 160.167,48.5 160.833,48.5 161.5,48.5C 162.778,48.2178 163.778,47.5511 164.5,46.5C 164.833,47.8333 165.167,47.8333 165.5,46.5C 166.391,47.1098 167.391,47.4431 168.5,47.5C 168.5,47.8333 168.5,48.1667 168.5,48.5C 168.5,48.8333 168.5,49.1667 168.5,49.5C 167.209,49.2627 166.209,49.596 165.5,50.5C 165.167,50.5 164.833,50.5 164.5,50.5C 161.518,50.9629 158.518,51.2962 155.5,51.5C 152.768,53.102 150.101,53.7687 147.5,53.5C 146.833,53.5 146.5,53.8333 146.5,54.5C 143.896,53.4696 141.229,53.4696 138.5,54.5C 137.167,54.8333 135.833,55.1667 134.5,55.5C 132.517,55.1568 131.183,55.8235 130.5,57.5C 129.833,57.1667 129.167,56.8333 128.5,56.5C 125.422,56.8416 122.088,57.3416 118.5,58C 120.595,58.5556 120.762,59.0556 119,59.5C 115.843,58.3628 112.677,58.3628 109.5,59.5C 109.158,58.6618 108.492,58.3284 107.5,58.5C 112.352,57.5438 117.186,56.2105 122,54.5C 124.911,54.7819 127.744,54.7819 130.5,54.5C 131.298,54.0431 131.631,53.3764 131.5,52.5C 132.925,54.0311 133.591,53.6977 133.5,51.5C 133.833,51.5 134.167,51.5 134.5,51.5C 134.328,52.4916 134.662,53.1583 135.5,53.5C 136.833,53.1667 138.167,52.8333 139.5,52.5C 141.698,52.5912 142.031,51.9245 140.5,50.5C 141.167,50.5 141.5,50.1667 141.5,49.5C 142.833,48.8333 142.833,48.1667 141.5,47.5C 142.11,46.609 142.443,45.609 142.5,44.5C 143.391,43.8902 144.391,43.5569 145.5,43.5 Z M 148.5,49.5 C 147.041,49.4326 145.708,49.7659 144.5,50.5C 144.588,47.3937 145.922,47.0603 148.5,49.5 Z"/></g>
<g><path style="opacity:0.012" fill="#3a3333" d="M 148.5,49.5 C 148.5,50.1667 148.833,50.5 149.5,50.5C 148.081,51.4511 146.415,51.7845 144.5,51.5C 144.5,51.1667 144.5,50.8333 144.5,50.5C 145.708,49.7659 147.041,49.4326 148.5,49.5 Z"/></g>
<g><path style="opacity:0.067" fill="#40403f" d="M 164.5,50.5 C 162.819,53.2777 160.819,54.9444 158.5,55.5C 158.587,52.4017 158.087,52.0684 157,54.5C 155.961,53.7562 155.461,52.7562 155.5,51.5C 158.518,51.2962 161.518,50.9629 164.5,50.5 Z"/></g>
<g><path style="opacity:0.004" fill="#000000" d="M 120.5,53.5 C 119.833,54.1667 119.833,54.1667 120.5,53.5 Z"/></g>
<g><path style="opacity:0.006" fill="#000000" d="M 162.5,53.5 C 163.267,54.172 163.934,55.0053 164.5,56C 162.939,56.1881 162.272,55.3547 162.5,53.5 Z"/></g>
<g><path style="opacity:0.004" fill="#000000" d="M 176.5,53.5 C 175.833,54.1667 175.833,54.1667 176.5,53.5 Z"/></g>
<g><path style="opacity:0.026" fill="#58574f" d="M 147.5,53.5 C 148.776,54.3864 148.776,55.3864 147.5,56.5C 146.702,56.0431 146.369,55.3764 146.5,54.5C 147.167,54.5 147.5,54.1667 147.5,53.5 Z"/></g>
<g><path style="opacity:0.004" fill="#000000" d="M 149.5,54.5 C 150.833,55.1667 150.833,55.1667 149.5,54.5 Z"/></g>
<g><path style="opacity:0.012" fill="#393939" d="M 152.5,55.5 C 152.897,54.475 153.563,54.3083 154.5,55C 153.906,55.4643 153.239,55.631 152.5,55.5 Z"/></g>
<g><path style="opacity:0.004" fill="#000000" d="M 183.5,54.5 C 184.833,55.1667 184.833,55.1667 183.5,54.5 Z"/></g>
<g><path style="opacity:0.004" fill="#000000" d="M 152.5,55.5 C 151.833,56.1667 151.833,56.1667 152.5,55.5 Z"/></g>
<g><path style="opacity:0.005" fill="#222015" d="M 158.5,55.5 C 158.052,57.4646 157.052,57.7979 155.5,56.5C 156.325,55.6143 157.325,55.281 158.5,55.5 Z"/></g>
<g><path style="opacity:0.004" fill="#000000" d="M 178.5,55.5 C 179.833,56.1667 179.833,56.1667 178.5,55.5 Z"/></g>
<g><path style="opacity:0.008" fill="#7e7f7e" d="M 183.5,55.5 C 182.833,56.1667 182.833,56.1667 183.5,55.5 Z"/></g>
<g><path style="opacity:0.004" fill="#000000" d="M 185.5,55.5 C 186.833,56.1667 186.833,56.1667 185.5,55.5 Z"/></g>
<g><path style="opacity:0.004" fill="#000000" d="M 82.5,56.5 C 83.8333,57.1667 83.8333,57.1667 82.5,56.5 Z"/></g>
<g><path style="opacity:0.004" fill="#000000" d="M 128.5,56.5 C 129.167,56.8333 129.833,57.1667 130.5,57.5C 127.977,60.2393 127.31,59.906 128.5,56.5 Z"/></g>
<g><path style="opacity:0.02" fill="#343232" d="M 138.5,54.5 C 138.944,56.1132 139.944,57.2798 141.5,58C 140.667,58.8333 139.833,59.6667 139,60.5C 138.722,59.5842 138.222,58.9175 137.5,58.5C 136.9,57.1001 135.9,56.1001 134.5,55.5C 135.833,55.1667 137.167,54.8333 138.5,54.5 Z"/></g>
<g><path style="opacity:0.004" fill="#000000" d="M 164.5,57.5 C 165.833,58.1667 165.833,58.1667 164.5,57.5 Z"/></g>
<g><path style="opacity:0.016" fill="#222222" d="M 166.5,58.5 C 167.077,57.2267 167.743,57.2267 168.5,58.5C 168.03,59.463 167.363,59.463 166.5,58.5 Z"/></g>
<g><path style="opacity:0.008" fill="#000000" d="M 121.5,58.5 C 122.833,59.1667 122.833,59.1667 121.5,58.5 Z"/></g>
<g><path style="opacity:0.004" fill="#1f1f1f" d="M 135.5,59.5 C 134.761,59.631 134.094,59.4643 133.5,59C 134.437,58.3083 135.103,58.475 135.5,59.5 Z"/></g>
<g><path style="opacity:0.02" fill="#1c1c1c" d="M 137.5,58.5 C 137.5,59.8333 136.833,60.5 135.5,60.5C 135.5,60.1667 135.5,59.8333 135.5,59.5C 136.167,59.1667 136.833,58.8333 137.5,58.5 Z"/></g>
<g><path style="opacity:0.004" fill="#000000" d="M 125.5,60.5 C 126.833,61.1667 126.833,61.1667 125.5,60.5 Z"/></g>
<g><path style="opacity:0.004" fill="#000000" d="M 135.5,60.5 C 134.833,61.1667 134.833,61.1667 135.5,60.5 Z"/></g>
<g><path style="opacity:0.004" fill="#000000" d="M 140.5,60.5 C 141.833,61.1667 141.833,61.1667 140.5,60.5 Z"/></g>
<g><path style="opacity:0.006" fill="#1b1b1b" d="M 128.5,61.5 C 130.089,60.3789 131.756,60.5456 133.5,62C 132.584,62.3742 131.75,62.8742 131,63.5C 130.583,62.244 129.75,61.5774 128.5,61.5 Z"/></g>
<g><path style="opacity:0.004" fill="#111111" d="M 138.5,63.5 C 135.863,61.8462 136.197,61.3462 139.5,62C 138.944,62.3826 138.611,62.8826 138.5,63.5 Z"/></g>
<g><path style="opacity:0.004" fill="#000000" d="M 113.5,62.5 C 114.833,63.1667 114.833,63.1667 113.5,62.5 Z"/></g>
<g><path style="opacity:0.016" fill="#3e3f3e" d="M 161.5,62.5 C 162.833,63.1667 162.833,63.1667 161.5,62.5 Z"/></g>
<g><path style="opacity:0.004" fill="#000000" d="M 101.5,63.5 C 102.833,64.1667 102.833,64.1667 101.5,63.5 Z"/></g>
<g><path style="opacity:0.004" fill="#000000" d="M 118.5,63.5 C 119.833,64.1667 119.833,64.1667 118.5,63.5 Z"/></g>
<g><path style="opacity:0.008" fill="#191919" d="M 121.5,62.5 C 122.525,62.8966 122.692,63.5632 122,64.5C 121.536,63.9056 121.369,63.2389 121.5,62.5 Z"/></g>
<g><path style="opacity:0.004" fill="#000000" d="M 132.5,64.5 C 132.897,63.475 133.563,63.3083 134.5,64C 133.906,64.4643 133.239,64.631 132.5,64.5 Z"/></g>
<g><path style="opacity:0.004" fill="#000000" d="M 152.5,63.5 C 153.833,64.1667 153.833,64.1667 152.5,63.5 Z"/></g>
<g><path style="opacity:0.004" fill="#000000" d="M 156.5,63.5 C 157.833,64.1667 157.833,64.1667 156.5,63.5 Z"/></g>
<g><path style="opacity:0.004" fill="#000000" d="M 182.5,63.5 C 183.833,64.1667 183.833,64.1667 182.5,63.5 Z"/></g>
<g><path style="opacity:0.004" fill="#000000" d="M 196.5,63.5 C 197.833,64.1667 197.833,64.1667 196.5,63.5 Z"/></g>
<g><path style="opacity:0.008" fill="#000000" d="M 51.5,64.5 C 52.8333,65.1667 52.8333,65.1667 51.5,64.5 Z"/></g>
<g><path style="opacity:0.004" fill="#000000" d="M 146.5,65.5 C 147.833,66.1667 147.833,66.1667 146.5,65.5 Z"/></g>
<g><path style="opacity:0.012" fill="#545554" d="M 159.5,65.5 C 160.833,66.1667 160.833,66.1667 159.5,65.5 Z"/></g>
<g><path style="opacity:0.004" fill="#000000" d="M 86.5,66.5 C 87.8333,67.1667 87.8333,67.1667 86.5,66.5 Z"/></g>
<g><path style="opacity:0.008" fill="#4d4a25" d="M 127.5,68.5 C 126.287,67.5029 126.454,66.5029 128,65.5C 128.47,66.5768 128.303,67.5768 127.5,68.5 Z"/></g>
<g><path style="opacity:0.004" fill="#000000" d="M 130.5,67.5 C 130.897,66.475 131.563,66.3083 132.5,67C 131.906,67.4643 131.239,67.631 130.5,67.5 Z"/></g>
<g><path style="opacity:0.004" fill="#000000" d="M 43.5,68.5 C 42.8333,67.1667 42.8333,67.1667 43.5,68.5 Z"/></g>
<g><path style="opacity:0.004" fill="#000000" d="M 86.5,67.5 C 85.8333,68.1667 85.8333,68.1667 86.5,67.5 Z"/></g>
<g><path style="opacity:0.004" fill="#000000" d="M 92.5,67.5 C 93.8333,68.1667 93.8333,68.1667 92.5,67.5 Z"/></g>
<g><path style="opacity:0.004" fill="#251615" d="M 133.5,66.5 C 134.525,66.8966 134.692,67.5632 134,68.5C 133.536,67.9056 133.369,67.2389 133.5,66.5 Z"/></g>
<g><path style="opacity:0.004" fill="#000000" d="M 136.5,67.5 C 137.833,68.1667 137.833,68.1667 136.5,67.5 Z"/></g>
<g><path style="opacity:0.02" fill="#676767" d="M 165.5,66.5 C 166.289,66.7828 166.956,67.2828 167.5,68C 166.184,68.5281 165.517,68.0281 165.5,66.5 Z"/></g>
<g><path style="opacity:0.004" fill="#000000" d="M 43.5,68.5 C 44.8333,69.1667 44.8333,69.1667 43.5,68.5 Z"/></g>
<g><path style="opacity:0.004" fill="#000000" d="M 89.5,68.5 C 90.8333,69.1667 90.8333,69.1667 89.5,68.5 Z"/></g>
<g><path style="opacity:0.004" fill="#000000" d="M 99.5,68.5 C 100.833,69.1667 100.833,69.1667 99.5,68.5 Z"/></g>
<g><path style="opacity:0.016" fill="#403f38" d="M 121.5,65.5 C 123.498,66.7655 123.498,68.4322 121.5,70.5C 121.193,69.1125 121.193,67.4458 121.5,65.5 Z"/></g>
<g><path style="opacity:0.004" fill="#000000" d="M 127.5,68.5 C 128.124,68.9169 128.457,69.5836 128.5,70.5C 128.253,71.7133 127.586,72.38 126.5,72.5C 127.234,71.2921 127.567,69.9587 127.5,68.5 Z"/></g>
<g><path style="opacity:0.008" fill="#000000" d="M 15.5,69.5 C 16.7733,70.0768 16.7733,70.7435 15.5,71.5C 14.537,71.0302 14.537,70.3635 15.5,69.5 Z"/></g>
<g><path style="opacity:0.006" fill="#000000" d="M 29.5,70.5 C 29.8966,69.475 30.5632,69.3083 31.5,70C 30.9056,70.4643 30.2389,70.631 29.5,70.5 Z"/></g>
<g><path style="opacity:0.004" fill="#000000" d="M 52.5,71.5 C 52.8966,70.475 53.5632,70.3083 54.5,71C 53.9056,71.4643 53.2389,71.631 52.5,71.5 Z"/></g>
<g><path style="opacity:0.016" fill="#3e3f3e" d="M 97.5,70.5 C 98.8333,71.1667 98.8333,71.1667 97.5,70.5 Z"/></g>
<g><path style="opacity:0.006" fill="#1a0f0e" d="M 113.5,71.5 C 114.386,70.2241 115.386,70.2241 116.5,71.5C 115.767,72.087 114.767,72.087 113.5,71.5 Z"/></g>
<g><path style="opacity:0.012" fill="#545554" d="M 130.5,70.5 C 131.833,71.1667 131.833,71.1667 130.5,70.5 Z"/></g>
<g><path style="opacity:0.004" fill="#000000" d="M 164.5,70.5 C 165.833,71.1667 165.833,71.1667 164.5,70.5 Z"/></g>
<g><path style="opacity:0.004" fill="#000000" d="M 10.5,71.5 C 11.8333,72.1667 11.8333,72.1667 10.5,71.5 Z"/></g>
<g><path style="opacity:0.004" fill="#111111" d="M 55.5,72.5 C 55.56,71.9569 55.8933,71.6236 56.5,71.5C 57.5827,72.365 57.7494,73.365 57,74.5C 56.7216,73.5842 56.2216,72.9175 55.5,72.5 Z"/></g>
<g><path style="opacity:0.486" fill="#c1c0bf" d="M 107.5,58.5 C 108.492,58.3284 109.158,58.6618 109.5,59.5C 97.0524,61.7567 84.7191,64.59 72.5,68C 69.1284,69.0189 66.1284,70.5189 63.5,72.5C 63.1667,72.5 62.8333,72.5 62.5,72.5C 61.8485,73.0906 61.1818,73.7573 60.5,74.5C 59.7176,72.6707 60.3843,71.1707 62.5,70C 77.0511,64.4455 92.0511,60.6122 107.5,58.5 Z"/></g>
<g><path style="opacity:0.006" fill="#171717" d="M 62.5,72.5 C 62.8333,72.5 63.1667,72.5 63.5,72.5C 66.3117,71.1128 67.1451,72.1128 66,75.5C 65,74.1667 64,74.1667 63,75.5C 62.5172,74.552 62.3505,73.552 62.5,72.5 Z"/></g>
<g><path style="opacity:0.004" fill="#000000" d="M 68.5,71.5 C 69.8333,72.1667 69.8333,72.1667 68.5,71.5 Z"/></g>
<g><path style="opacity:0.004" fill="#000000" d="M 146.5,71.5 C 147.833,72.1667 147.833,72.1667 146.5,71.5 Z"/></g>
<g><path style="opacity:0.004" fill="#000000" d="M 170.5,71.5 C 171.525,71.8966 171.692,72.5632 171,73.5C 170.536,72.9056 170.369,72.2389 170.5,71.5 Z"/></g>
<g><path style="opacity:0.004" fill="#000000" d="M 17.5,72.5 C 18.8333,73.1667 18.8333,73.1667 17.5,72.5 Z"/></g>
<g><path style="opacity:0.004" fill="#000000" d="M 123.5,72.5 C 124.525,72.8966 124.692,73.5632 124,74.5C 123.536,73.9056 123.369,73.2389 123.5,72.5 Z"/></g>
<g><path style="opacity:0.004" fill="#000000" d="M 126.5,72.5 C 125.833,73.1667 125.833,73.1667 126.5,72.5 Z"/></g>
<g><path style="opacity:0.004" fill="#000000" d="M 132.5,73.5 C 131.833,72.1667 131.833,72.1667 132.5,73.5 Z"/></g>
<g><path style="opacity:0.004" fill="#000000" d="M 154.5,72.5 C 155.833,73.1667 155.833,73.1667 154.5,72.5 Z"/></g>
<g><path style="opacity:0.004" fill="#000000" d="M 0.5,73.5 C 1.83333,74.1667 1.83333,74.1667 0.5,73.5 Z"/></g>
<g><path style="opacity:0.004" fill="#000000" d="M 108.5,73.5 C 109.833,74.1667 109.833,74.1667 108.5,73.5 Z"/></g>
<g><path style="opacity:0.008" fill="#7e7f7e" d="M 116.5,73.5 C 117.833,74.1667 117.833,74.1667 116.5,73.5 Z"/></g>
<g><path style="opacity:0.004" fill="#18120e" d="M 126.5,78.5 C 126.167,78.5 125.833,78.5 125.5,78.5C 125.729,76.567 126.562,74.9003 128,73.5C 129.5,74.6667 131,75.8333 132.5,77C 130.892,77.658 129.725,77.158 129,75.5C 127.959,76.4711 127.126,77.4711 126.5,78.5 Z"/></g>
<g><path style="opacity:0.012" fill="#2b2b2b" d="M 136.5,78.5 C 135.833,78.5 135.167,78.5 134.5,78.5C 134.608,76.4862 133.942,74.8195 132.5,73.5C 134.505,72.8764 136.172,73.7097 137.5,76C 135.381,76.3418 135.047,77.1751 136.5,78.5 Z"/></g>
<g><path style="opacity:0.031" fill="#333232" d="M 138.5,63.5 C 140.2,64.016 141.533,65.016 142.5,66.5C 140.508,68.1914 139.508,70.0248 139.5,72C 143.43,75.4168 144.097,74.9168 141.5,70.5C 141.846,69.3044 142.346,69.3044 143,70.5C 144.707,72.9088 145.54,75.5755 145.5,78.5C 144.5,78.5 143.5,78.5 142.5,78.5C 142.027,77.0937 141.027,76.427 139.5,76.5C 139.341,73.6342 138.341,71.9675 136.5,71.5C 137.491,69.6769 138.824,68.1769 140.5,67C 138.714,65.707 137.047,65.207 135.5,65.5C 136.602,64.8243 137.602,64.1577 138.5,63.5 Z"/></g>
<g><path style="opacity:0.004" fill="#000000" d="M 6.5,75.5 C 7.83333,76.1667 7.83333,76.1667 6.5,75.5 Z"/></g>
<g><path style="opacity:0.004" fill="#000000" d="M 38.5,75.5 C 39.8333,76.1667 39.8333,76.1667 38.5,75.5 Z"/></g>
<g><path style="opacity:0.004" fill="#000000" d="M 73.5,75.5 C 74.8333,76.1667 74.8333,76.1667 73.5,75.5 Z"/></g>
<g><path style="opacity:0.004" fill="#000000" d="M 107.5,75.5 C 108.833,76.1667 108.833,76.1667 107.5,75.5 Z"/></g>
<g><path style="opacity:0.004" fill="#000000" d="M 112.5,75.5 C 114.337,75.6395 114.67,76.3061 113.5,77.5C 112.702,77.0431 112.369,76.3764 112.5,75.5 Z"/></g>
<g><path style="opacity:0.004" fill="#000000" d="M 115.5,75.5 C 116.833,76.1667 116.833,76.1667 115.5,75.5 Z"/></g>
<g><path style="opacity:0.004" fill="#000000" d="M 158.5,75.5 C 159.833,76.1667 159.833,76.1667 158.5,75.5 Z"/></g>
<g><path style="opacity:0.004" fill="#000000" d="M 194.5,75.5 C 195.833,76.1667 195.833,76.1667 194.5,75.5 Z"/></g>
<g><path style="opacity:0.004" fill="#000000" d="M 67.5,77.5 C 66.7611,77.631 66.0944,77.4643 65.5,77C 66.4368,76.3083 67.1034,76.475 67.5,77.5 Z"/></g>
<g><path style="opacity:0.004" fill="#000000" d="M -0.5,78.5 C 0.833333,79.1667 0.833333,79.1667 -0.5,78.5 Z"/></g>
<g><path style="opacity:0.073" fill="#bab9b8" d="M 139.5,76.5 C 139.833,77.1667 140.167,77.8333 140.5,78.5C 136.5,79.1667 132.5,79.8333 128.5,80.5C 115.892,80.5607 103.226,80.5607 90.5,80.5C 88.6803,80.6493 87.1803,81.3159 86,82.5C 82.1638,80.6112 77.9971,79.9445 73.5,80.5C 72.5,80.5 71.5,80.5 70.5,80.5C 68.5,80.5 66.5,80.5 64.5,80.5C 64.1667,84.5 63.8333,84.5 63.5,80.5C 44.8333,80.5 26.1667,80.5 7.5,80.5C 29.5,79.8333 51.5,79.1667 73.5,78.5C 90.7417,78.3562 108.075,78.3562 125.5,78.5C 125.833,78.5 126.167,78.5 126.5,78.5C 129.167,78.5 131.833,78.5 134.5,78.5C 135.167,78.5 135.833,78.5 136.5,78.5C 137.778,78.2178 138.778,77.5511 139.5,76.5 Z"/></g>
<g><path style="opacity:0.627" fill="#aeadab" d="M 73.5,78.5 C 51.5,79.1667 29.5,79.8333 7.5,80.5C 5.14001,81.9162 3.14001,81.5828 1.5,79.5C 23.6629,78.8333 45.6629,78.1667 67.5,77.5C 68.8249,78.9526 69.6582,78.6192 70,76.5C 70.7096,77.9733 71.8762,78.6399 73.5,78.5 Z"/></g>
<g><path style="opacity:0.587" fill="#cbcbca" d="M 140.5,78.5 C 141.167,78.5 141.833,78.5 142.5,78.5C 143.5,78.5 144.5,78.5 145.5,78.5C 162.837,78.3334 180.17,78.5001 197.5,79C 195.111,80.0961 192.611,80.9294 190,81.5C 175.245,80.5094 160.412,80.176 145.5,80.5C 144.5,80.5 143.5,80.5 142.5,80.5C 142.167,80.5 141.833,80.5 141.5,80.5C 140.833,80.5 140.167,80.5 139.5,80.5C 137.167,80.5 134.833,80.5 132.5,80.5C 131.833,80.5 131.167,80.5 130.5,80.5C 129.833,80.5 129.167,80.5 128.5,80.5C 132.5,79.8333 136.5,79.1667 140.5,78.5 Z"/></g>
<g><path style="opacity:0.016" fill="#202020" d="M 70.5,80.5 C 71.5,80.5 72.5,80.5 73.5,80.5C 74.8062,81.4674 75.4729,82.8007 75.5,84.5C 74.5416,84.0472 73.7083,83.3805 73,82.5C 72.3292,83.2524 71.4959,83.5858 70.5,83.5C 70.5,82.5 70.5,81.5 70.5,80.5 Z"/></g>
<g><path style="opacity:0.004" fill="#1e0800" d="M 130.5,80.5 C 131.167,80.5 131.833,80.5 132.5,80.5C 131.833,81.5 131.167,82.5 130.5,83.5C 129.375,82.6522 129.375,81.6522 130.5,80.5 Z"/></g>
<g><path style="opacity:0.004" fill="#000000" d="M 21.5,81.5 C 22.8333,82.1667 22.8333,82.1667 21.5,81.5 Z"/></g>
<g><path style="opacity:0.004" fill="#000000" d="M 57.5,81.5 C 58.8333,82.1667 58.8333,82.1667 57.5,81.5 Z"/></g>
<g><path style="opacity:0.016" fill="#3c3531" d="M 139.5,80.5 C 140.167,80.5 140.833,80.5 141.5,80.5C 141.5,81.1667 141.833,81.5 142.5,81.5C 140.921,85.317 139.921,84.9837 139.5,80.5 Z"/></g>
<g><path style="opacity:0.012" fill="#545554" d="M 183.5,81.5 C 184.833,82.1667 184.833,82.1667 183.5,81.5 Z"/></g>
<g><path style="opacity:0.004" fill="#000000" d="M 65.5,82.5 C 66.8333,83.1667 66.8333,83.1667 65.5,82.5 Z"/></g>
<g><path style="opacity:0.004" fill="#000000" d="M 88.5,82.5 C 89.8333,83.1667 89.8333,83.1667 88.5,82.5 Z"/></g>
<g><path style="opacity:0.004" fill="#000000" d="M 137.5,82.5 C 138.833,83.1667 138.833,83.1667 137.5,82.5 Z"/></g>
<g><path style="opacity:0.005" fill="#1d1d1d" d="M 142.5,81.5 C 142.5,81.1667 142.5,80.8333 142.5,80.5C 143.5,80.5 144.5,80.5 145.5,80.5C 145.539,81.5832 145.873,82.5832 146.5,83.5C 144.044,86.2223 143.377,86.0557 144.5,83C 143.956,82.2828 143.289,81.7828 142.5,81.5 Z"/></g>
<g><path style="opacity:0.004" fill="#000000" d="M 11.5,83.5 C 12.8333,84.1667 12.8333,84.1667 11.5,83.5 Z"/></g>
<g><path style="opacity:0.004" fill="#000000" d="M 113.5,84.5 C 113.897,83.475 114.563,83.3083 115.5,84C 114.906,84.4643 114.239,84.631 113.5,84.5 Z"/></g>
<g><path style="opacity:0.004" fill="#000000" d="M 125.5,84.5 C 124.833,83.1667 124.833,83.1667 125.5,84.5 Z"/></g>
<g><path style="opacity:0.004" fill="#000000" d="M 130.5,83.5 C 131.239,83.369 131.906,83.5357 132.5,84C 131.563,84.6917 130.897,84.525 130.5,83.5 Z"/></g>
<g><path style="opacity:0.004" fill="#212121" d="M 135.5,84.5 C 135.369,83.7611 135.536,83.0944 136,82.5C 136.692,83.4368 136.525,84.1034 135.5,84.5 Z"/></g>
<g><path style="opacity:0.004" fill="#000000" d="M 154.5,83.5 C 155.833,84.1667 155.833,84.1667 154.5,83.5 Z"/></g>
<g><path style="opacity:0.004" fill="#1f1f1f" d="M 162.5,82.5 C 163.525,82.8966 163.692,83.5632 163,84.5C 162.536,83.9056 162.369,83.2389 162.5,82.5 Z"/></g>
<g><path style="opacity:0.004" fill="#000000" d="M 167.5,83.5 C 168.833,84.1667 168.833,84.1667 167.5,83.5 Z"/></g>
<g><path style="opacity:0.004" fill="#000000" d="M 184.5,84.5 C 183.833,83.1667 183.833,83.1667 184.5,84.5 Z"/></g>
<g><path style="opacity:0.004" fill="#000000" d="M 48.5,85.5 C 48.8966,84.475 49.5632,84.3083 50.5,85C 49.9056,85.4643 49.2389,85.631 48.5,85.5 Z"/></g>
<g><path style="opacity:0.004" fill="#000000" d="M 96.5,84.5 C 97.8333,85.1667 97.8333,85.1667 96.5,84.5 Z"/></g>
<g><path style="opacity:0.004" fill="#000000" d="M 105.5,84.5 C 106.525,84.8966 106.692,85.5632 106,86.5C 105.536,85.9056 105.369,85.2389 105.5,84.5 Z"/></g>
<g><path style="opacity:0.004" fill="#000000" d="M 123.5,85.5 C 122.833,86.1667 122.167,86.8333 121.5,87.5C 121.586,86.5041 121.252,85.6708 120.5,85C 121.749,84.2599 122.749,84.4265 123.5,85.5 Z"/></g>
<g><path style="opacity:0.004" fill="#000000" d="M 139.5,85.5 C 138.833,84.1667 138.833,84.1667 139.5,85.5 Z"/></g>
<g><path style="opacity:0.004" fill="#000000" d="M 147.5,84.5 C 148.833,85.1667 148.833,85.1667 147.5,84.5 Z"/></g>
<g><path style="opacity:0.008" fill="#191919" d="M 164.5,85.5 C 164.897,84.475 165.563,84.3083 166.5,85C 165.906,85.4643 165.239,85.631 164.5,85.5 Z"/></g>
<g><path style="opacity:0.004" fill="#000000" d="M 184.5,84.5 C 185.833,85.1667 185.833,85.1667 184.5,84.5 Z"/></g>
<g><path style="opacity:0.008" fill="#000000" d="M 193.5,84.5 C 194.833,85.1667 194.833,85.1667 193.5,84.5 Z"/></g>
<g><path style="opacity:0.004" fill="#0e0e0e" d="M 199.5,83.5 C 199.5,83.8333 199.5,84.1667 199.5,84.5C 198.577,85.3029 197.577,85.4696 196.5,85C 197.244,83.9614 198.244,83.4614 199.5,83.5 Z"/></g>
<g><path style="opacity:0.006" fill="#0a0a0a" d="M 68.5,86.5 C 68.1788,88.0481 67.1788,88.7148 65.5,88.5C 65.4017,85.7524 66.4017,85.0857 68.5,86.5 Z"/></g>
<g><path style="opacity:0.004" fill="#000000" d="M 118.5,85.5 C 119.525,85.8966 119.692,86.5632 119,87.5C 118.536,86.9056 118.369,86.2389 118.5,85.5 Z"/></g>
<g><path style="opacity:0.004" fill="#000000" d="M 123.5,85.5 C 124.833,86.1667 124.833,86.1667 123.5,85.5 Z"/></g>
<g><path style="opacity:0.031" fill="#312222" d="M 125.5,84.5 C 126.289,84.7828 126.956,85.2828 127.5,86C 126.184,86.5281 125.517,86.0281 125.5,84.5 Z"/></g>
<g><path style="opacity:0.004" fill="#000000" d="M 181.5,85.5 C 182.833,86.1667 182.833,86.1667 181.5,85.5 Z"/></g>
<g><path style="opacity:0.004" fill="#000000" d="M 12.5,86.5 C 13.8333,87.1667 13.8333,87.1667 12.5,86.5 Z"/></g>
<g><path style="opacity:0.004" fill="#000000" d="M 86.5,87.5 C 85.8333,86.1667 85.8333,86.1667 86.5,87.5 Z"/></g>
<g><path style="opacity:0.005" fill="#1d1d1d" d="M 135.5,84.5 C 135.414,85.4959 135.748,86.3292 136.5,87C 135.333,87.5 134.5,88.3333 134,89.5C 133.966,87.8204 133.799,86.3204 133.5,85C 134.094,84.5357 134.761,84.369 135.5,84.5 Z"/></g>
<g><path style="opacity:0.004" fill="#000000" d="M 137.5,86.5 C 138.833,87.1667 138.833,87.1667 137.5,86.5 Z"/></g>
<g><path style="opacity:0.005" fill="#1e1b19" d="M 139.5,85.5 C 140.289,85.7828 140.956,86.2828 141.5,87C 140.483,88.0495 140.316,89.2161 141,90.5C 142.508,87.9408 144.675,86.2741 147.5,85.5C 147.649,86.552 147.483,87.552 147,88.5C 146.346,87.3044 145.846,87.3044 145.5,88.5C 146.025,89.1924 146.692,89.6924 147.5,90C 146.08,92.4654 145.747,94.9654 146.5,97.5C 147.944,96.019 148.611,96.3523 148.5,98.5C 147.733,99.172 147.066,100.005 146.5,101C 147.38,102.356 147.714,103.856 147.5,105.5C 146.662,105.842 146.328,106.508 146.5,107.5C 146.167,107.5 145.833,107.5 145.5,107.5C 145.731,104.606 145.064,101.939 143.5,99.5C 144.097,99.2648 144.43,98.7648 144.5,98C 143.813,92.1932 142.48,92.0265 140.5,97.5C 139.808,95.6649 140.142,93.8316 141.5,92C 139.833,92.3333 138.167,92.6667 136.5,93C 139.041,91.1516 140.041,88.6516 139.5,85.5 Z"/></g>
<g><path style="opacity:0.004" fill="#000000" d="M 193.5,87.5 C 193.897,86.475 194.563,86.3083 195.5,87C 194.906,87.4643 194.239,87.631 193.5,87.5 Z"/></g>
<g><path style="opacity:0.016" fill="#211e1d" d="M 82.5,88.5 C 82.8152,90.2647 82.8152,91.9313 82.5,93.5C 82.1667,94.1667 81.8333,94.8333 81.5,95.5C 80.8333,95.5 80.1667,95.5 79.5,95.5C 77.5214,93.8325 75.188,93.1658 72.5,93.5C 71.4161,90.9959 70.0828,88.6626 68.5,86.5C 68.427,84.9731 69.0937,83.9731 70.5,83.5C 70.484,85.4841 71.484,86.4841 73.5,86.5C 74.7133,86.2528 75.38,85.5862 75.5,84.5C 76.1174,84.6107 76.6174,84.944 77,85.5C 78.3513,83.981 79.8513,82.6477 81.5,81.5C 82.6039,82.6313 82.2705,83.4646 80.5,84C 81.5822,85.3297 82.2488,86.8297 82.5,88.5 Z M 82.5,88.5 C 80.7559,91.1003 79.4225,90.9336 78.5,88C 79.9285,87.4209 81.2618,87.5876 82.5,88.5 Z"/></g>
<g><path style="opacity:0.004" fill="#000000" d="M 86.5,87.5 C 87.0141,88.6246 87.3474,89.7913 87.5,91C 86.5,91.6667 85.5,91.6667 84.5,91C 85.305,89.8873 85.9717,88.7206 86.5,87.5 Z"/></g>
<g><path style="opacity:0.012" fill="#545500" d="M 121.5,87.5 C 120.833,88.1667 120.833,88.1667 121.5,87.5 Z"/></g>
<g><path style="opacity:0.004" fill="#000000" d="M 126.5,87.5 C 127.833,88.1667 127.833,88.1667 126.5,87.5 Z"/></g>
<g><path style="opacity:0.004" fill="#000000" d="M 131.5,87.5 C 132.833,88.1667 132.833,88.1667 131.5,87.5 Z"/></g>
<g><path style="opacity:0.004" fill="#000000" d="M 168.5,87.5 C 169.833,88.1667 169.833,88.1667 168.5,87.5 Z"/></g>
<g><path style="opacity:0.004" fill="#000000" d="M 26.5,88.5 C 27.525,88.8966 27.6917,89.5632 27,90.5C 26.5357,89.9056 26.369,89.2389 26.5,88.5 Z"/></g>
<g><path style="opacity:0.016" fill="#222222" d="M 56.5,87.5 C 58.4759,88.4271 58.8092,89.7605 57.5,91.5C 56.5713,90.3112 56.238,88.9778 56.5,87.5 Z"/></g>
<g><path style="opacity:0.004" fill="#000000" d="M 102.5,88.5 C 103.833,89.1667 103.833,89.1667 102.5,88.5 Z"/></g>
<g><path style="opacity:0.004" fill="#000000" d="M 117.5,88.5 C 118.525,88.8966 118.692,89.5632 118,90.5C 117.536,89.9056 117.369,89.2389 117.5,88.5 Z"/></g>
<g><path style="opacity:0.004" fill="#000000" d="M 129.5,88.5 C 130.833,89.1667 130.833,89.1667 129.5,88.5 Z"/></g>
<g><path style="opacity:0.004" fill="#000000" d="M 136.5,88.5 C 137.833,89.1667 137.833,89.1667 136.5,88.5 Z"/></g>
<g><path style="opacity:0.004" fill="#000000" d="M 189.5,88.5 C 190.833,89.1667 190.833,89.1667 189.5,88.5 Z"/></g>
<g><path style="opacity:0.012" fill="#000000" d="M 64.5,89.5 C 65.8333,90.1667 65.8333,90.1667 64.5,89.5 Z"/></g>
<g><path style="opacity:0.004" fill="#000000" d="M 110.5,89.5 C 111.833,90.1667 111.833,90.1667 110.5,89.5 Z"/></g>
<g><path style="opacity:0.004" fill="#000000" d="M 112.5,89.5 C 113.833,90.1667 113.833,90.1667 112.5,89.5 Z"/></g>
<g><path style="opacity:0.004" fill="#000000" d="M 114.5,89.5 C 115.833,90.1667 115.833,90.1667 114.5,89.5 Z"/></g>
<g><path style="opacity:0.008" fill="#000000" d="M 121.5,90.5 C 121.897,89.475 122.563,89.3083 123.5,90C 122.906,90.4643 122.239,90.631 121.5,90.5 Z"/></g>
<g><path style="opacity:0.016" fill="#403e28" d="M 195.5,89.5 C 198.001,89.5109 198.168,90.1776 196,91.5C 195.536,90.9056 195.369,90.2389 195.5,89.5 Z"/></g>
<g><path style="opacity:0.004" fill="#000000" d="M 39.5,90.5 C 40.8333,91.1667 40.8333,91.1667 39.5,90.5 Z"/></g>
<g><path style="opacity:0.004" fill="#000000" d="M 62.5,90.5 C 63.8333,91.1667 63.8333,91.1667 62.5,90.5 Z"/></g>
<g><path style="opacity:0.004" fill="#000000" d="M 66.5,90.5 C 67.8333,91.1667 67.8333,91.1667 66.5,90.5 Z"/></g>
<g><path style="opacity:0.004" fill="#000000" d="M 104.5,90.5 C 105.833,91.1667 105.833,91.1667 104.5,90.5 Z"/></g>
<g><path style="opacity:0.008" fill="#2b2b2b" d="M 124.5,90.5 C 126.337,90.6395 126.67,91.3061 125.5,92.5C 124.702,92.0431 124.369,91.3764 124.5,90.5 Z"/></g>
<g><path style="opacity:0.006" fill="#000000" d="M 134.5,91.5 C 134.897,90.475 135.563,90.3083 136.5,91C 135.906,91.4643 135.239,91.631 134.5,91.5 Z"/></g>
<g><path style="opacity:0.004" fill="#000000" d="M 52.5,92.5 C 52.8966,91.475 53.5632,91.3083 54.5,92C 53.9056,92.4643 53.2389,92.631 52.5,92.5 Z"/></g>
<g><path style="opacity:0.004" fill="#000000" d="M 88.5,92.5 C 88.8966,91.475 89.5632,91.3083 90.5,92C 89.9056,92.4643 89.2389,92.631 88.5,92.5 Z"/></g>
<g><path style="opacity:0.005" fill="#140400" d="M 134.5,91.5 C 133.709,93.0562 133.376,94.3895 133.5,95.5C 132.618,94.2402 131.618,93.0736 130.5,92C 131.793,91.51 133.127,91.3433 134.5,91.5 Z"/></g>
<g><path style="opacity:0.004" fill="#000000" d="M 170.5,91.5 C 171.833,92.1667 171.833,92.1667 170.5,91.5 Z"/></g>
<g><path style="opacity:0.008" fill="#535353" d="M 184.5,90.5 C 185.525,90.8966 185.692,91.5632 185,92.5C 184.536,91.9056 184.369,91.2389 184.5,90.5 Z"/></g>
<g><path style="opacity:0.004" fill="#000000" d="M 188.5,91.5 C 189.833,92.1667 189.833,92.1667 188.5,91.5 Z"/></g>
<g><path style="opacity:0.004" fill="#000000" d="M 69.5,92.5 C 70.8333,93.1667 70.8333,93.1667 69.5,92.5 Z"/></g>
<g><path style="opacity:0.004" fill="#000000" d="M 18.5,93.5 C 19.8333,94.1667 19.8333,94.1667 18.5,93.5 Z"/></g>
<g><path style="opacity:0.004" fill="#000000" d="M 52.5,93.5 C 53.8333,94.1667 53.8333,94.1667 52.5,93.5 Z"/></g>
<g><path style="opacity:0.004" fill="#000000" d="M 184.5,93.5 C 185.525,93.8966 185.692,94.5632 185,95.5C 184.536,94.9056 184.369,94.2389 184.5,93.5 Z"/></g>
<g><path style="opacity:0.008" fill="#7e7f7e" d="M 197.5,93.5 C 198.833,94.1667 198.833,94.1667 197.5,93.5 Z"/></g>
<g><path style="opacity:0.004" fill="#000000" d="M 31.5,94.5 C 32.525,94.8966 32.6917,95.5632 32,96.5C 31.5357,95.9056 31.369,95.2389 31.5,94.5 Z"/></g>
<g><path style="opacity:0.004" fill="#000000" d="M 40.5,95.5 C 40.8966,94.475 41.5632,94.3083 42.5,95C 41.9056,95.4643 41.2389,95.631 40.5,95.5 Z"/></g>
<g><path style="opacity:0.945" fill="#c6c6c5" d="M 94.5,96.5 C 94.0032,98.7803 93.6699,101.447 93.5,104.5C 91.744,103.448 91.0773,101.781 91.5,99.5C 90.0838,97.14 90.4172,95.14 92.5,93.5C 93.4252,94.3569 94.0919,95.3569 94.5,96.5 Z"/></g>
<g><path style="opacity:0.739" fill="#dcdcdc" d="M 106.5,92.5 C 107.496,92.4142 108.329,92.7476 109,93.5C 109.499,97.1516 109.665,100.818 109.5,104.5C 108.5,104.5 107.5,104.5 106.5,104.5C 106.5,100.5 106.5,96.5 106.5,92.5 Z"/></g>
<g><path style="opacity:0.004" fill="#000000" d="M 151.5,94.5 C 152.833,95.1667 152.833,95.1667 151.5,94.5 Z"/></g>
<g><path style="opacity:0.004" fill="#000000" d="M 48.5,95.5 C 49.8333,96.1667 49.8333,96.1667 48.5,95.5 Z"/></g>
<g><path style="opacity:0.004" fill="#000000" d="M 60.5,95.5 C 61.2891,95.7828 61.9558,96.2828 62.5,97C 61.184,97.5281 60.5173,97.0281 60.5,95.5 Z"/></g>
<g><path style="opacity:0.984" fill="#cfcecd" d="M 72.5,93.5 C 75.188,93.1658 77.5214,93.8325 79.5,95.5C 79.4088,97.6977 80.0755,98.0311 81.5,96.5C 81.5,97.1667 81.5,97.8333 81.5,98.5C 80.8333,98.5 80.5,98.8333 80.5,99.5C 79.8902,100.391 79.5569,101.391 79.5,102.5C 78.8333,102.5 78.5,102.833 78.5,103.5C 77.8333,103.5 77.5,103.833 77.5,104.5C 77.1667,104.5 76.8333,104.5 76.5,104.5C 75.8333,104.5 75.1667,104.5 74.5,104.5C 73.0413,104.567 71.7079,104.234 70.5,103.5C 70.1667,102.5 69.5,101.833 68.5,101.5C 67.7741,97.693 69.1074,95.0263 72.5,93.5 Z M 76.5,99.5 C 74.6253,97.9219 73.2919,98.2552 72.5,100.5C 71.5154,97.5626 72.8488,96.2292 76.5,96.5C 76.5,97.5 76.5,98.5 76.5,99.5 Z"/></g>
<g><path style="opacity:0.488" fill="#cac7c6" d="M 103.5,98.5 C 103.5,98.8333 103.5,99.1667 103.5,99.5C 102.957,99.56 102.624,99.8933 102.5,100.5C 106.437,102.649 106.103,103.982 101.5,104.5C 101.5,103.833 101.167,103.5 100.5,103.5C 99.2921,104.234 97.9587,104.567 96.5,104.5C 96.5,104.167 96.5,103.833 96.5,103.5C 96.8151,100.789 96.1484,98.4559 94.5,96.5C 96.0481,96.1788 96.7148,95.1788 96.5,93.5C 98.5273,93.3379 100.527,93.5045 102.5,94C 103.38,95.3561 103.714,96.8561 103.5,98.5 Z"/></g>
<g><path style="opacity:0.004" fill="#000000" d="M 112.5,95.5 C 112.5,96.1667 112.5,96.8333 112.5,97.5C 109.833,96.8333 109.833,96.1667 112.5,95.5 Z"/></g>
<g><path style="opacity:0.008" fill="#000000" d="M 130.5,95.5 C 131.833,96.1667 131.833,96.1667 130.5,95.5 Z"/></g>
<g><path style="opacity:0.004" fill="#000000" d="M 137.5,95.5 C 138.833,96.1667 138.833,96.1667 137.5,95.5 Z"/></g>
<g><path style="opacity:0.004" fill="#151515" d="M 52.5,96.5 C 54.337,96.6395 54.6704,97.3061 53.5,98.5C 52.7025,98.0431 52.3691,97.3764 52.5,96.5 Z"/></g>
<g><path style="opacity:0.997" fill="#cccbc9" d="M 112.5,97.5 C 112.5,96.8333 112.5,96.1667 112.5,95.5C 113.105,93.9743 114.271,92.9743 116,92.5C 118.782,92.8566 120.948,93.8566 122.5,95.5C 121.796,97.7405 121.296,100.074 121,102.5C 114.667,107.246 111.834,105.579 112.5,97.5 Z M 115.5,96.5 C 118.956,97.5362 119.29,99.2029 116.5,101.5C 115.548,99.9547 115.215,98.288 115.5,96.5 Z"/></g>
<g><path style="opacity:0.005" fill="#000000" d="M 133.5,96.5 C 134.267,97.172 134.934,98.0053 135.5,99C 133.741,99.7975 132.074,99.6309 130.5,98.5C 131.602,97.8243 132.602,97.1577 133.5,96.5 Z"/></g>
<g><path style="opacity:0.004" fill="#191919" d="M 137.5,96.5 C 137.5,97.5 137.5,98.5 137.5,99.5C 136.167,98.5 136.167,97.5 137.5,96.5 Z"/></g>
<g><path style="opacity:0.004" fill="#000000" d="M 162.5,97.5 C 163.833,98.1667 163.833,98.1667 162.5,97.5 Z"/></g>
<g><path style="opacity:0.004" fill="#000000" d="M 166.5,97.5 C 167.833,98.1667 167.833,98.1667 166.5,97.5 Z"/></g>
<g><path style="opacity:0.004" fill="#000000" d="M 30.5,98.5 C 31.8333,99.1667 31.8333,99.1667 30.5,98.5 Z"/></g>
<g><path style="opacity:0.005" fill="#000000" d="M 43.5,98.5 C 46.7973,98.3287 47.1306,98.9954 44.5,100.5C 43.7025,100.043 43.3691,99.3764 43.5,98.5 Z"/></g>
<g><path style="opacity:0.004" fill="#000000" d="M 59.5,98.5 C 61.9828,98.73 62.4828,99.3966 61,100.5C 59.9701,100.164 59.4701,99.4972 59.5,98.5 Z"/></g>
<g><path style="opacity:0.004" fill="#000000" d="M 76.5,99.5 C 76.5,100.833 75.8333,101.5 74.5,101.5C 74.1583,100.662 73.4916,100.328 72.5,100.5C 73.2919,98.2552 74.6253,97.9219 76.5,99.5 Z"/></g>
<g><path style="opacity:0.004" fill="#191919" d="M 103.5,98.5 C 106.001,98.5109 106.168,99.1776 104,100.5C 103.601,100.272 103.435,99.9382 103.5,99.5C 103.5,99.1667 103.5,98.8333 103.5,98.5 Z"/></g>
<g><path style="opacity:1" fill="#d1d1d0" d="M 130.5,104.5 C 128.167,104.5 125.833,104.5 123.5,104.5C 123.5,100.833 123.5,97.1667 123.5,93.5C 125.5,93.5 127.5,93.5 129.5,93.5C 129.5,94.5 129.5,95.5 129.5,96.5C 125.944,96.2749 125.61,97.1082 128.5,99C 128.095,99.9454 127.428,100.612 126.5,101C 127.793,101.49 129.127,101.657 130.5,101.5C 130.5,102.5 130.5,103.5 130.5,104.5 Z"/></g>
<g><path style="opacity:0.004" fill="#000000" d="M 143.5,99.5 C 142.833,98.1667 142.833,98.1667 143.5,99.5 Z"/></g>
<g><path style="opacity:0.004" fill="#000000" d="M 162.5,98.5 C 162.489,101.001 161.822,101.168 160.5,99C 161.094,98.5357 161.761,98.369 162.5,98.5 Z"/></g>
<g><path style="opacity:0.004" fill="#000000" d="M 181.5,98.5 C 182.833,99.1667 182.833,99.1667 181.5,98.5 Z"/></g>
<g><path style="opacity:0.006" fill="#131212" d="M 91.5,99.5 C 91.0773,101.781 91.744,103.448 93.5,104.5C 93.4346,104.938 93.6012,105.272 94,105.5C 94.4169,104.244 95.2502,103.577 96.5,103.5C 96.5,103.833 96.5,104.167 96.5,104.5C 96.5569,105.609 96.8902,106.609 97.5,107.5C 94.1667,107.5 90.8333,107.5 87.5,107.5C 87.1667,106.167 86.8333,106.167 86.5,107.5C 83.8333,107.5 81.1667,107.5 78.5,107.5C 77.8902,106.609 77.5569,105.609 77.5,104.5C 77.5,103.833 77.8333,103.5 78.5,103.5C 79.1667,103.5 79.5,103.167 79.5,102.5C 79.5569,101.391 79.8902,100.391 80.5,99.5C 81.1667,99.5 81.5,99.1667 81.5,98.5C 82.6828,99.5045 84.0161,100.338 85.5,101C 84.2161,101.684 83.0495,101.517 82,100.5C 81.4209,101.928 81.5876,103.262 82.5,104.5C 87.9262,105.416 89.5929,103.416 87.5,98.5C 87.4346,98.0618 87.6012,97.7284 88,97.5C 89.1127,98.305 90.2794,98.9717 91.5,99.5 Z M 82.5,104.5 C 82.3605,106.337 81.6939,106.67 80.5,105.5C 80.9569,104.702 81.6236,104.369 82.5,104.5 Z"/></g>
<g><path style="opacity:0.007" fill="#1c1c1c" d="M 137.5,99.5 C 138.473,99.9867 139.473,100.487 140.5,101C 138.843,101.725 137.843,101.225 137.5,99.5 Z"/></g>
<g><path style="opacity:0.008" fill="#4b4b4b" d="M 176.5,100.5 C 177.497,99.2875 178.497,99.4542 179.5,101C 178.423,101.47 177.423,101.303 176.5,100.5 Z"/></g>
<g><path style="opacity:0.005" fill="#000000" d="M 32.5,100.5 C 36.1331,100.443 36.2998,101.443 33,103.5C 32.5172,102.552 32.3505,101.552 32.5,100.5 Z"/></g>
<g><path style="opacity:0.004" fill="#000000" d="M 135.5,100.5 C 136.833,101.167 136.833,101.167 135.5,100.5 Z"/></g>
<g><path style="opacity:0.004" fill="#000000" d="M 164.5,100.5 C 165.833,101.167 165.833,101.167 164.5,100.5 Z"/></g>
<g><path style="opacity:0.004" fill="#000000" d="M 59.5,101.5 C 62.1247,102.466 62.1247,103.466 59.5,104.5C 56.9548,103.451 56.9548,102.451 59.5,101.5 Z"/></g>
<g><path style="opacity:0.004" fill="#0a0a0a" d="M 68.5,101.5 C 69.5,101.833 70.1667,102.5 70.5,103.5C 69.5084,103.328 68.8417,103.662 68.5,104.5C 67.4168,104.461 66.4168,104.127 65.5,103.5C 63.9954,106.131 63.3287,105.797 63.5,102.5C 65.4147,102.784 67.0813,102.451 68.5,101.5 Z"/></g>
<g><path style="opacity:0.012" fill="#39302e" d="M 148.5,98.5 C 150.466,99.2545 150.8,100.421 149.5,102C 151.155,103.444 151.822,105.278 151.5,107.5C 151.167,107.5 150.833,107.5 150.5,107.5C 149.833,106.167 149.167,106.167 148.5,107.5C 148.167,107.5 147.833,107.5 147.5,107.5C 147.5,106.833 147.5,106.167 147.5,105.5C 148.552,105.649 149.552,105.483 150.5,105C 148.75,103.246 148.083,101.079 148.5,98.5 Z"/></g>
<g><path style="opacity:0.004" fill="#000000" d="M 44.5,103.5 C 45.3864,102.224 46.3864,102.224 47.5,103.5C 46.5754,104.562 45.5754,104.562 44.5,103.5 Z"/></g>
<g><path style="opacity:0.004" fill="#000000" d="M 48.5,102.5 C 50.337,102.639 50.6704,103.306 49.5,104.5C 48.7025,104.043 48.3691,103.376 48.5,102.5 Z"/></g>
<g><path style="opacity:0.999" fill="#d5d5d3" d="M 82.5,93.5 C 84.5,93.5 86.5,93.5 88.5,93.5C 88.5,94.5 88.5,95.5 88.5,96.5C 85.1469,96.3453 84.8136,97.0119 87.5,98.5C 89.5929,103.416 87.9262,105.416 82.5,104.5C 81.5876,103.262 81.4209,101.928 82,100.5C 83.0495,101.517 84.2161,101.684 85.5,101C 84.0161,100.338 82.6828,99.5045 81.5,98.5C 81.5,97.8333 81.5,97.1667 81.5,96.5C 81.5,96.1667 81.5,95.8333 81.5,95.5C 81.8333,94.8333 82.1667,94.1667 82.5,93.5 Z"/></g>
<g><path style="opacity:0.004" fill="#000000" d="M 135.5,103.5 C 134.833,102.167 134.833,102.167 135.5,103.5 Z"/></g>
<g><path style="opacity:0.012" fill="#545554" d="M 137.5,102.5 C 138.833,103.167 138.833,103.167 137.5,102.5 Z"/></g>
<g><path style="opacity:0.004" fill="#000000" d="M 171.5,102.5 C 172.525,102.897 172.692,103.563 172,104.5C 171.536,103.906 171.369,103.239 171.5,102.5 Z"/></g>
<g><path style="opacity:0.005" fill="#191919" d="M 40.5,103.5 C 43.7973,103.329 44.1306,103.995 41.5,105.5C 40.7025,105.043 40.3691,104.376 40.5,103.5 Z"/></g>
<g><path style="opacity:0.004" fill="#000000" d="M 135.5,103.5 C 136.833,104.167 136.833,104.167 135.5,103.5 Z"/></g>
<g><path style="opacity:0.004" fill="#000000" d="M 142.5,103.5 C 143.525,103.897 143.692,104.563 143,105.5C 142.536,104.906 142.369,104.239 142.5,103.5 Z"/></g>
<g><path style="opacity:0.004" fill="#2b2b2b" d="M 165.5,104.5 C 165.897,103.475 166.563,103.308 167.5,104C 166.906,104.464 166.239,104.631 165.5,104.5 Z"/></g>
<g><path style="opacity:0.008" fill="#000000" d="M 178.5,103.5 C 179.833,104.167 179.833,104.167 178.5,103.5 Z"/></g>
<g><path style="opacity:0.004" fill="#000000" d="M 184.5,104.5 C 183.833,103.167 183.833,103.167 184.5,104.5 Z"/></g>
<g><path style="opacity:0.005" fill="#000000" d="M 68.5,104.5 C 70.4044,104.738 71.7377,105.738 72.5,107.5C 71.5,107.5 70.5,107.5 69.5,107.5C 69.4431,106.391 69.1098,105.391 68.5,104.5 Z"/></g>
<g><path style="opacity:0.006" fill="#000000" d="M 74.5,104.5 C 75.1667,104.5 75.8333,104.5 76.5,104.5C 75.8902,105.391 75.5569,106.391 75.5,107.5C 75.1667,107.5 74.8333,107.5 74.5,107.5C 74.5,106.5 74.5,105.5 74.5,104.5 Z"/></g>
<g><path style="opacity:0.004" fill="#000000" d="M 130.5,104.5 C 131.833,105.167 131.833,105.167 130.5,104.5 Z"/></g>
<g><path style="opacity:0.012" fill="#505050" d="M 132.5,103.5 C 133.525,103.897 133.692,104.563 133,105.5C 132.536,104.906 132.369,104.239 132.5,103.5 Z"/></g>
<g><path style="opacity:0.004" fill="#000000" d="M 135.5,104.5 C 134.833,105.167 134.833,105.167 135.5,104.5 Z"/></g>
<g><path style="opacity:0.004" fill="#000000" d="M 176.5,104.5 C 177.833,105.167 177.833,105.167 176.5,104.5 Z"/></g>
<g><path style="opacity:0.004" fill="#000000" d="M 184.5,104.5 C 185.833,105.167 185.833,105.167 184.5,104.5 Z"/></g>
<g><path style="opacity:0.005" fill="#000000" d="M 56.5,106.5 C 57.9464,105.387 59.6131,105.22 61.5,106C 59.8659,106.494 58.1992,106.66 56.5,106.5 Z"/></g>
<g><path style="opacity:0.008" fill="#2f2f2f" d="M 100.5,103.5 C 101.167,103.5 101.5,103.833 101.5,104.5C 102.11,105.391 102.443,106.391 102.5,107.5C 101.5,107.5 100.5,107.5 99.5,107.5C 99.8333,106.167 100.167,104.833 100.5,103.5 Z"/></g>
<g><path style="opacity:0.004" fill="#000000" d="M 137.5,105.5 C 138.833,106.167 138.833,106.167 137.5,105.5 Z"/></g>
<g><path style="opacity:0.004" fill="#000000" d="M 141.5,107.5 C 141.167,107.5 140.833,107.5 140.5,107.5C 140.833,104.833 141.167,104.833 141.5,107.5 Z"/></g>
<g><path style="opacity:0.004" fill="#000000" d="M 173.5,105.5 C 174.833,106.167 174.833,106.167 173.5,105.5 Z"/></g>
<g><path style="opacity:0.016" fill="#1d1d1d" d="M 35.5,107.5 C 34.5,107.5 33.5,107.5 32.5,107.5C 33.7399,105.015 34.7399,105.015 35.5,107.5 Z"/></g>
<g><path style="opacity:0.005" fill="#000000" d="M 39.5,107.5 C 41.1667,106.167 42.8333,106.167 44.5,107.5C 42.8333,107.5 41.1667,107.5 39.5,107.5 Z"/></g>
<g><path style="opacity:0.004" fill="#000000" d="M 55.5,107.5 C 54.8333,106.167 54.8333,106.167 55.5,107.5 Z"/></g>
<g><path style="opacity:0.016" fill="#353535" d="M 106.5,107.5 C 105.833,107.5 105.167,107.5 104.5,107.5C 105.548,105.067 106.214,105.067 106.5,107.5 Z"/></g>
<g><path style="opacity:0.006" fill="#000000" d="M 135.5,107.5 C 135.842,106.662 136.508,106.328 137.5,106.5C 137.5,106.833 137.5,107.167 137.5,107.5C 136.833,107.5 136.167,107.5 135.5,107.5 Z"/></g>
<g><path style="opacity:0.004" fill="#000000" d="M 154.5,107.5 C 153.833,106.167 153.833,106.167 154.5,107.5 Z"/></g>
<g><path style="opacity:0.004" fill="#000000" d="M 170.5,107.5 C 171.167,106.167 171.833,106.167 172.5,107.5C 171.833,107.5 171.167,107.5 170.5,107.5 Z"/></g>
</svg>
