<?xml version="1.0" encoding="UTF-8"?>
<!DOCTYPE svg PUBLIC "-//W3C//DTD SVG 1.1//EN" "http://www.w3.org/Graphics/SVG/1.1/DTD/svg11.dtd">
<svg xmlns="http://www.w3.org/2000/svg" version="1.1" width="200px" height="52px" style="shape-rendering:geometricPrecision; text-rendering:geometricPrecision; image-rendering:optimizeQuality; fill-rule:evenodd; clip-rule:evenodd" xmlns:xlink="http://www.w3.org/1999/xlink">
<g><path style="opacity:0.999" fill="#234d89" d="M 22.5,-0.5 C 26.1667,-0.5 29.8333,-0.5 33.5,-0.5C 51.5233,8.39929 56.3567,22.066 48,40.5C 47.1841,41.8228 46.0174,42.4894 44.5,42.5C 41.5,42.5 38.5,42.5 35.5,42.5C 34.5,42.5 33.5,42.5 32.5,42.5C 29.2585,40.8793 25.9252,39.2126 22.5,37.5C 21.0499,36.1502 20.3832,34.4835 20.5,32.5C 20.33,31.1779 20.6634,30.0113 21.5,29C 20.3094,28.3021 19.3094,27.4687 18.5,26.5C 16.3125,16.9697 17.6458,7.96969 22.5,-0.5 Z"/></g>
<g><path style="opacity:0.604" fill="#9aadc9" d="M 13.5,5.5 C 13.5,4.16667 12.8333,3.5 11.5,3.5C 15.8034,0.649708 16.4701,1.31637 13.5,5.5 Z"/></g>
<g><path style="opacity:0.997" fill="#3a5b92" d="M 11.5,3.5 C 12.8333,3.5 13.5,4.16667 13.5,5.5C 13.4255,11.5293 13.7588,17.5293 14.5,23.5C 14.3573,25.2624 14.6906,26.9291 15.5,28.5C 15.0431,29.2975 14.3764,29.6309 13.5,29.5C 7.45073,23.8624 4.6174,16.8624 5,8.5C 6.75814,6.23451 8.92481,4.56784 11.5,3.5 Z"/></g>
<g><path style="opacity:0.69" fill="#41689b" d="M 71.5,8.5 C 80.9856,7.5062 90.6522,7.17287 100.5,7.5C 100.5,9.83333 100.5,12.1667 100.5,14.5C 93.1667,14.5 85.8333,14.5 78.5,14.5C 85.3134,13.5088 92.3134,13.1755 99.5,13.5C 99.5,11.8333 99.5,10.1667 99.5,8.5C 90.1667,8.5 80.8333,8.5 71.5,8.5 Z"/></g>
<g><path style="opacity:0.999" fill="#2a508b" d="M 71.5,8.5 C 80.8333,8.5 90.1667,8.5 99.5,8.5C 99.5,10.1667 99.5,11.8333 99.5,13.5C 92.3134,13.1755 85.3134,13.5088 78.5,14.5C 75.1103,16.1747 74.777,18.3413 77.5,21C 83.1667,21.3333 88.8333,21.6667 94.5,22C 100.32,23.2849 103.32,26.9516 103.5,33C 102.955,37.6293 100.621,40.796 96.5,42.5C 86.8333,42.5 77.1667,42.5 67.5,42.5C 67.5,40.8333 67.5,39.1667 67.5,37.5C 75.0191,37.825 82.3524,37.4916 89.5,36.5C 91.5224,34.5807 91.8557,32.4141 90.5,30C 83.5752,29.9934 76.9085,29.1601 70.5,27.5C 70.0269,26.0937 69.0269,25.427 67.5,25.5C 65.1058,23.6682 64.1058,21.1682 64.5,18C 64.3384,15.498 65.0051,13.3313 66.5,11.5C 68.0269,11.573 69.0269,10.9063 69.5,9.5C 69.8417,8.66175 70.5084,8.32842 71.5,8.5 Z"/></g>
<g><path style="opacity:0.839" fill="#8197bb" d="M 104.5,7.5 C 107.833,7.5 111.167,7.5 114.5,7.5C 114.5,19.5 114.5,31.5 114.5,43.5C 111.167,43.5 107.833,43.5 104.5,43.5C 104.5,31.5 104.5,19.5 104.5,7.5 Z"/></g>
<g><path style="opacity:1" fill="#134683" d="M 105.5,8.5 C 107.833,8.5 110.167,8.5 112.5,8.5C 112.5,19.8333 112.5,31.1667 112.5,42.5C 110.167,42.5 107.833,42.5 105.5,42.5C 105.5,31.1667 105.5,19.8333 105.5,8.5 Z"/></g>
<g><path style="opacity:0.999" fill="#2e538d" d="M 129.5,34.5 C 129.821,36.0481 130.821,36.7148 132.5,36.5C 136.833,36.5 141.167,36.5 145.5,36.5C 145.5,34.1667 145.5,31.8333 145.5,29.5C 141.5,29.5 137.5,29.5 133.5,29.5C 133.5,27.1667 133.5,24.8333 133.5,22.5C 140.5,22.5 147.5,22.5 154.5,22.5C 154.5,29.5 154.5,36.5 154.5,43.5C 144.828,43.6665 135.161,43.4998 125.5,43C 115.546,35.3478 113.38,25.8478 119,14.5C 121.205,11.9598 123.705,9.79315 126.5,8C 135.827,7.50021 145.161,7.33355 154.5,7.5C 154.5,9.83333 154.5,12.1667 154.5,14.5C 146.389,14.0648 138.389,14.5648 130.5,16C 125.636,21.936 125.303,28.1027 129.5,34.5 Z"/></g>
<g><path style="opacity:1" fill="#254f8a" d="M 199.5,8.5 C 199.5,10.5 199.5,12.5 199.5,14.5C 195.5,14.5 191.5,14.5 187.5,14.5C 187.5,24.1667 187.5,33.8333 187.5,43.5C 184.5,43.5 181.5,43.5 178.5,43.5C 178.5,33.8333 178.5,24.1667 178.5,14.5C 174.702,13.5166 170.702,13.1832 166.5,13.5C 166.5,11.8333 166.5,10.1667 166.5,8.5C 177.5,8.5 188.5,8.5 199.5,8.5 Z"/></g>
<g><path style="opacity:0.71" fill="#7f97ba" d="M 69.5,9.5 C 69.0269,10.9063 68.0269,11.573 66.5,11.5C 66.9731,10.0937 67.9731,9.42702 69.5,9.5 Z"/></g>
<g><path style="opacity:0.78" fill="#5778a5" d="M 199.5,7.5 C 199.5,7.83333 199.5,8.16667 199.5,8.5C 188.5,8.5 177.5,8.5 166.5,8.5C 166.5,10.1667 166.5,11.8333 166.5,13.5C 170.702,13.1832 174.702,13.5166 178.5,14.5C 174.167,14.5 169.833,14.5 165.5,14.5C 165.5,24.1667 165.5,33.8333 165.5,43.5C 162.5,43.5 159.5,43.5 156.5,43.5C 156.5,31.5 156.5,19.5 156.5,7.5C 170.833,7.5 185.167,7.5 199.5,7.5 Z"/></g>
<g><path style="opacity:1" fill="#134683" d="M 157.5,8.5 C 159.833,8.5 162.167,8.5 164.5,8.5C 164.5,19.8333 164.5,31.1667 164.5,42.5C 162.167,42.5 159.833,42.5 157.5,42.5C 157.5,31.1667 157.5,19.8333 157.5,8.5 Z"/></g>
<g><path style="opacity:0.997" fill="#8b989f" d="M -0.5,19.5 C 5.02314,27.8459 12.3565,34.3459 21.5,39C 22.4419,42.2477 23.7752,42.7477 25.5,40.5C 27.6179,41.9459 29.9512,42.6126 32.5,42.5C 32.5,42.8333 32.5,43.1667 32.5,43.5C 34.2646,44.4614 36.2646,44.7947 38.5,44.5C 39.1667,44.5 39.8333,44.5 40.5,44.5C 41.4916,44.3284 42.1583,44.6618 42.5,45.5C 40.0819,48.0202 37.4152,50.0202 34.5,51.5C 28.8333,51.5 23.1667,51.5 17.5,51.5C 8.77089,47.7704 2.77089,41.4371 -0.5,32.5C -0.5,28.1667 -0.5,23.8333 -0.5,19.5 Z"/></g>
<g><path style="opacity:0.4" fill="#8da3c2" d="M 67.5,25.5 C 69.0269,25.427 70.0269,26.0937 70.5,27.5C 68.9731,27.573 67.9731,26.9063 67.5,25.5 Z"/></g>
<g><path style="opacity:1" fill="#6880ac" d="M 18.5,26.5 C 19.3094,27.4687 20.3094,28.3021 21.5,29C 20.6634,30.0113 20.33,31.1779 20.5,32.5C 19.2616,30.7857 18.595,28.7857 18.5,26.5 Z"/></g>
<g><path style="opacity:0.918" fill="#637ba8" d="M 14.5,23.5 C 15.8099,26.3985 17.1432,29.3985 18.5,32.5C 16.2671,33.0161 14.6004,32.0161 13.5,29.5C 14.3764,29.6309 15.0431,29.2975 15.5,28.5C 14.6906,26.9291 14.3573,25.2624 14.5,23.5 Z"/></g>
<g><path style="opacity:0.812" fill="#8c9dbf" d="M 129.5,34.5 C 130.71,34.9321 131.71,35.5987 132.5,36.5C 130.821,36.7148 129.821,36.0481 129.5,34.5 Z"/></g>
<g><path style="opacity:0.796" fill="#446a9c" d="M 89.5,36.5 C 82.3524,37.4916 75.0191,37.825 67.5,37.5C 67.5,39.1667 67.5,40.8333 67.5,42.5C 77.1667,42.5 86.8333,42.5 96.5,42.5C 86.6806,43.494 76.6806,43.8274 66.5,43.5C 66.5,41.1667 66.5,38.8333 66.5,36.5C 74.1667,36.5 81.8333,36.5 89.5,36.5 Z"/></g>
<g><path style="opacity:0.455" fill="#c9d1d9" d="M 35.5,42.5 C 38.5,42.5 41.5,42.5 44.5,42.5C 44.7148,44.1788 44.0481,45.1788 42.5,45.5C 42.1583,44.6618 41.4916,44.3284 40.5,44.5C 39.8333,43.1667 39.1667,43.1667 38.5,44.5C 36.2646,44.7947 34.2646,44.4614 32.5,43.5C 33.791,43.7373 34.791,43.404 35.5,42.5 Z"/></g>
</svg>
